<svg xmlns="http://www.w3.org/2000/svg" xmlns:xlink="http://www.w3.org/1999/xlink" viewBox="0 0 1048.8189 396.85039"><defs><style>.cls-1{fill:none;}.cls-2{fill:#040000;}.cls-3{fill:#231815;}.cls-4{fill:#554343;}.cls-5{clip-path:url(#clip-path);}.cls-6{fill:#ddb182;}.cls-7{fill:#c57b77;}.cls-8{fill:#89b2cb;}.cls-9{fill:#a9be7b;}</style><clipPath id="clip-path"><path class="cls-1" d="M448.47,172.26836c0,123.6399-100.59,224.23-224.23,224.23C100.59,396.49834,0,295.90826,0,172.26836,0,48.62823,100.59-51.96174,224.24-51.96174,347.88-51.96174,448.47,48.62823,448.47,172.26836Z"/></clipPath></defs><g id="圖層_4" data-name="圖層 4"><polygon class="cls-2" points="406.708 211.723 406.718 211.723 406.718 211.753 406.708 211.743 406.708 211.723"/><path class="cls-2" d="M378.86128,182.14278a.03685.03685,0,0,1,.01-.03l-.01.06v-.03Z"/><path class="cls-2" d="M378.88123,182.11782a.01387.01387,0,0,0,0,.02l-.01.03Z"/><path class="cls-3" d="M29.20518,213.92281a5.65466,5.65466,0,0,0-.93.07v-.07Z"/><path class="cls-3" d="M122.51591,203.05v.07a5.65458,5.65458,0,0,0-.93-.07Z"/><path class="cls-4" d="M480.69389,302.83156a5.18027,5.18027,0,0,1,4.11524.168,4.762,4.762,0,0,1,2.77148,3.94726,7.50833,7.50833,0,0,1-.33593,2.60352,5.28183,5.28183,0,0,1-2.1836,2.09961q-5.291,3.02343-16.79687,4.70312-3.69728.67383-3.10743,4.61914,0,2.10059,2.01563,2.09961h16.293q4.61718.92578,4.19922,5.543a5.0781,5.0781,0,0,1-4.19922,4.45117h-16.209q-2.10059,0-2.09961,2.01563a11.546,11.546,0,0,0,.168,3.10742,3.323,3.323,0,0,0,3.19141,2.35156h43.58789a3.70572,3.70572,0,0,0,2.93945-2.43554,6.81047,6.81047,0,0,0,.252-3.02344,1.78158,1.78158,0,0,0-2.01563-2.01563H498.58257q-4.62012-.83788-4.36719-5.71093.334-3.2754,4.36719-4.28321h14.69726a1.78158,1.78158,0,0,0,2.01563-2.01562v-2.6875a3.1446,3.1446,0,0,0-3.02344-2.77149H498.49858a6.07314,6.07314,0,0,1-1.67969-.41992,5.13163,5.13163,0,0,1-3.10742-4.45117q.082-4.19825,4.70313-5.123h20.32422a11.01651,11.01651,0,0,1,3.35937,1.17578,7.79989,7.79989,0,0,1,3.44336,5.87891v29.98242q0,3.2754-4.03125,6.55078a7.55635,7.55635,0,0,1-3.7793,1.34375H506.813q-2.10059,0-2.0996,2.01563v15.957a8.48634,8.48634,0,0,0,.33593,2.85547,3.24412,3.24412,0,0,0,2.1836,1.5957h8.48242q5.96191-.67383,5.12305-5.96289a17.6789,17.6789,0,0,1,.41992-4.78711,4.90562,4.90562,0,0,1,9.74218-.168,8.26847,8.26847,0,0,1,.168,3.10743l-.33593,9.23828a10.24792,10.24792,0,0,1-3.69532,7.05468,4.762,4.762,0,0,1-2.51953,1.17579,61.97234,61.97234,0,0,1-11.42187.83984h-5.627l-5.207-.168a14.44424,14.44424,0,0,1-3.35937-.92383q-4.20117-2.26758-4.53516-6.04687V352.55031a1.78158,1.78158,0,0,0-2.01562-2.01563h-7.81055q-2.10059,0-2.09961,2.01563a26.16759,26.16759,0,0,1-5.375,18.14062A39.40865,39.40865,0,0,1,464.065,381.021a21.98063,21.98063,0,0,1-9.57422,3.19141q-4.28321,0-5.03906-4.78711-.58887-3.36036,3.35937-5.207a35.93586,35.93586,0,0,0,13.4375-6.63477q5.543-4.7871,6.04688-10.666v-4.36719a1.78158,1.78158,0,0,0-2.01563-2.01563h-7.55859q-6.29883-.41894-7.89453-7.89453V314.50539a6.57979,6.57979,0,0,1,4.03125-5.96289,24.6596,24.6596,0,0,1,6.71875-1.67969A115.61093,115.61093,0,0,0,480.69389,302.83156Z"/><path class="cls-4" d="M559.87456,335.83742q.58593-3.60937,4.87109-4.78711h56.94141a5.38069,5.38069,0,0,1,4.87109,4.87109v19.48438a6.29363,6.29363,0,0,1-5.375,5.375H600.439q-2.10059,0-2.09961,1.17578,0,1.34472,2.01563,1.34375h24.27148A3.81688,3.81688,0,0,1,627.65,365.4839a4.7771,4.7771,0,0,1-.83984,4.95508,3.67212,3.67212,0,0,1-2.09961,1.0918H600.439q-2.10059,0-2.09961,1.17578,0,1.25976,2.01563,1.25976h30.99023a4.53781,4.53781,0,0,1,1.67969.5879,4.01155,4.01155,0,0,1,1.76367,3.10742q-.085,3.7793-3.52734,4.61914H555.25542q-3.94921-.58887-3.69531-4.78711.082-2.60449,3.52734-3.52735h31.32617q2.01563,0,2.01563-1.17578,0-1.25976-2.01563-1.25976H561.72221q-2.94139-.50391-3.61132-2.6875a4.92249,4.92249,0,0,1,.41992-3.69531,3.62887,3.62887,0,0,1,3.02344-1.84766h24.85937q2.01563,0,2.01563-1.25977t-2.01563-1.25976H564.40971a5.45286,5.45286,0,0,1-4.53515-5.375Zm31.24219-33.59375a5.72092,5.72092,0,0,1,4.53515.168,4.63878,4.63878,0,0,1,2.6875,3.69531q.082,1.68164,2.09961,1.67969H627.65a3.98418,3.98418,0,0,1,3.02344,2.09961q1.34179,3.27538-1.67969,5.71093a6.135,6.135,0,0,1-1.42774.50391h-9.74218a3.72428,3.72428,0,0,0-3.27539,2.26758q-1.00782,2.26758,1.00781,2.26758h15.11719a3.21841,3.21841,0,0,1,1.67968.58789,3.97115,3.97115,0,0,1,1.67969,4.11523q-.252,2.68946-3.44336,3.52735h-75.082a4.15372,4.15372,0,0,1-.084-8.23047h16.37695q2.09766,0,.83984-2.35157a3.911,3.911,0,0,0-3.35937-2.18359H558.95073a3.88235,3.88235,0,0,1-3.52734-2.77148,4.92252,4.92252,0,0,1,.41992-3.69532,4.38118,4.38118,0,0,1,3.02344-1.84765h27.54687a1.86641,1.86641,0,0,0,2.09961-2.01563A4.6498,4.6498,0,0,1,591.11675,302.24367Zm-2.6875,49.13086q-.085-1.34179-2.01563-1.34375H571.96831a5.55041,5.55041,0,0,0-2.09961.168q-.252,1.51171,1.51172,2.35156h15.0332Q588.42925,352.55031,588.42925,351.37453Zm-15.11719-12.09375a3.97894,3.97894,0,0,0-2.85547.41992,1.59574,1.59574,0,0,0-.58789,1.42773q.082.67383,2.09961.67188h14.44531q2.01563,0,2.01563-1.25977-.085-1.25976-2.09961-1.25976Zm30.31836-20.91211q1.0078-2.26758-.92383-2.26758H584.81792q-2.10058,0-.83985,2.26758a3.89823,3.89823,0,0,0,3.35938,2.26758H600.439A3.55764,3.55764,0,0,0,603.63042,318.36867Zm12.93359,22.5918q-.42187-2.18262-3.61133-1.67969H600.439q-2.10059,0-2.09961,1.17578,0,1.34472,2.01563,1.34375h14.19336Q616.564,341.80031,616.564,340.96047Zm.084,9.57421q0-.50389-2.01563-.5039H600.439q-2.10059,0-2.09961,1.17578,0,1.34472,2.01563,1.34375H612.8687a8.48628,8.48628,0,0,0,2.85547-.33594A1.84445,1.84445,0,0,0,616.648,350.53468Z"/><path class="cls-4" d="M682.81108,303.6714a3.33218,3.33218,0,0,1,2.6875.33594,5.33055,5.33055,0,0,1,2.26758,4.78711,3.76368,3.76368,0,0,1-1.76367,3.19141,25.96382,25.96382,0,0,1-5.291,2.01562,2.38158,2.38158,0,0,0-2.01562,2.51953v7.39063q0,2.10059,2.01562,2.09961h3.02344a15.84041,15.84041,0,0,1,3.7793.33593q1.25976.67383,1.34375-1.34375V310.978a6.69261,6.69261,0,0,1,5.375-5.79492h35.94531a6.91313,6.91313,0,0,1,5.291,5.71094v15.957a7.1912,7.1912,0,0,1-5.8789,6.04688H694.90483a7.00443,7.00443,0,0,1-2.60351-1.00782q-2.01562-1.42676-2.09961-.168a4.5835,4.5835,0,0,1-3.44336,3.7793q-2.18554.085-4.45117.084-2.1006,0-.084,2.01562,1.51171,1.59668,3.10742,3.27539,1.8457,2.10058,1.84766.084A6.68763,6.68763,0,0,1,688.522,338.357a5.89273,5.89273,0,0,1,4.70312-1.17578l1.42774.084h7.89453a138.07566,138.07566,0,0,0,27.46289-3.52734q3.60938-1.1748,5.62695,1.5957a5.54487,5.54487,0,0,1,.58789,5.03906,4.92519,4.92519,0,0,1-2.93945,2.51954,63.58824,63.58824,0,0,1-14.5293,3.27539,2.05318,2.05318,0,0,0-2.01562,2.26757v4.61915q0,2.10059,2.01562,2.0996h15.45313a4.59651,4.59651,0,0,1,4.03125,3.52735q.92284,4.7871-4.11524,6.13086H718.84038q-2.10059,0-2.09961,2.01562v4.78711q0,2.09766,2.01562,2.09961h14.61329q4.36522.92286,3.94726,5.291-.252,3.35742-4.03125,4.2832H689.02593a4.66462,4.66462,0,0,1-3.19141-2.18359,5.11356,5.11356,0,0,1-.25195-4.8711,4.53684,4.53684,0,0,1,3.61132-2.51953H704.815a1.78157,1.78157,0,0,0,2.01562-2.01562v-4.8711A1.78157,1.78157,0,0,0,704.815,364.812H687.34624q-2.68945-.252-3.86328-3.7793a5.51241,5.51241,0,0,1,.41992-3.35937,4.71943,4.71943,0,0,1,3.7793-2.51954H704.815a1.78157,1.78157,0,0,0,2.01562-2.01562v-3.86328a1.86641,1.86641,0,0,0-2.01562-2.09961,14.40449,14.40449,0,0,0-2.1836.168h-8.31445l-2.01562-.168q-1.84865-.334-1.51172,1.0918a7.08478,7.08478,0,0,1,0,2.18359,4.6838,4.6838,0,0,1-4.36719,3.19141,3.24513,3.24513,0,0,1-2.77148-.92383,29.91347,29.91347,0,0,1-3.19141-3.86328q-1.76367-2.09766-1.76367,0v31.83007q-.84082,4.70216-4.8711,4.70313-4.20117-.252-4.78711-4.53516V357.33742a12.87079,12.87079,0,0,0-.084-2.1836q-.085-.25194-1.34375,1.67969-1.34472,2.4375-3.10742,5.03906a3.74843,3.74843,0,0,1-2.26758,1.76368,4.52751,4.52751,0,0,1-3.02344.168q-4.45312-1.8457-3.27539-5.87891a9.75266,9.75266,0,0,1,1.93164-3.35938,75.28593,75.28593,0,0,0,9.23828-16.96484q.75587-2.01562-1.25976-2.01562H660.1353q-2.85645-.41895-3.7793-3.7793-.75585-4.70216,4.11524-5.79492H667.022a1.78158,1.78158,0,0,0,2.01562-2.01563v-5.207q0-2.01562-2.01562-1.67969-2.10059.252-4.19922.58789-3.7793.58887-5.12305-3.69531-.67383-5.20605,4.95508-6.13086,6.71778-1.42676,13.4375-2.60351A42.83985,42.83985,0,0,1,682.81108,303.6714Zm17.2168,11.25391q-1.42969.50391-1.51172,1.5957v4.70313q.082,1.42968,2.01562,2.01562h21.16407a9.60222,9.60222,0,0,0,2.43554-.168q.75587-.167,1.51172-1.42773a11.40929,11.40929,0,0,0,.168-2.6875,9.63719,9.63719,0,0,0-.33594-3.10742,3.57981,3.57981,0,0,0-3.69531-1.0918H702.63139A12.224,12.224,0,0,0,700.02788,314.92531Z"/><path class="cls-4" d="M761.57085,340.20461q.167-4.19825,4.45117-5.03907h33.92969q2.85351.16992,4.03125,3.52735.92285,4.957-4.11524,6.46679h-9.07031q-2.10059,0-2.09961,2.01563v17.2168q0,2.01563,2.01563,1.5957a118.48285,118.48285,0,0,0,13.10156-4.36719,5.382,5.382,0,0,1,5.459,1.42774q2.34962,2.77148.92383,6.71875a3.72408,3.72408,0,0,1-1.42773,1.51171,88.91681,88.91681,0,0,1-13.4375,4.95508q-13.43849,3.69434-26.875,6.29883a19.49924,19.49924,0,0,1-4.8711.25195q-2.35254.167-3.69531-2.60351a7.63127,7.63127,0,0,1-.50391-3.35938,5.4381,5.4381,0,0,1,3.44336-4.2832l13.18555-2.85547a2.29289,2.29289,0,0,0,2.09961-2.43555V347.17531a1.78158,1.78158,0,0,0-2.01563-2.01563H766.19A4.80337,4.80337,0,0,1,761.57085,340.20461Zm55.84961-37.877q3.27538-1.51172,7.89453,1.93164a45.41618,45.41618,0,0,1,6.71875,4.95508q2.60156,2.4375,1.09179,5.207-1.09277,1.59669.92383,1.59571a7.01931,7.01931,0,0,1,3.7793.5039,4.57583,4.57583,0,0,1,2.51953,3.52735,5.29856,5.29856,0,0,1-.252,2.6875,5.10481,5.10481,0,0,1-3.94727,3.27539H816.16069a1.70251,1.70251,0,0,0-1.93164,2.01562,102.66516,102.66516,0,0,0,5.291,26.53906,50.97462,50.97462,0,0,0,6.88671,13.4375,17.20634,17.20634,0,0,0,1.34375,1.67969q1.25977,1.76367,2.35157.084a17.21956,17.21956,0,0,0,.41992-3.35938q.167-3.35742.41992-6.71875,1.25976-4.53516,5.375-4.53516a5.65521,5.65521,0,0,1,3.19141,1.34375,5.82236,5.82236,0,0,1,1.34375,1.76368q1.08984,4.36816-.83985,14.44531a34.84481,34.84481,0,0,1-1.76367,6.71875,6.82431,6.82431,0,0,1-2.35156,3.27539q-6.97266,3.19043-12.76563-2.60352a42.52447,42.52447,0,0,1-9.40625-13.52148,103.69729,103.69729,0,0,1-8.5664-26.875q-1.00782-5.96191-1.51172-11.50586-.16992-2.18262-2.01563-2.18359h-37.625q-2.94139-.252-4.2832-3.52735-1.00781-3.10547,2.01563-5.71093a4.87463,4.87463,0,0,1,2.18359-.75586h36.78516a1.78158,1.78158,0,0,0,2.01562-2.01563q-.16992-3.10546-.168-6.21484a5.70812,5.70812,0,0,1,2.85547-4.70313,5.97838,5.97838,0,0,1,4.95508-.25195,6.457,6.457,0,0,1,2.77148,4.78711l.168,6.29883q0,2.10058,2.01563,2.09961h7.97851q2.09766,0,0-1.59571-3.52734-2.01562-6.38281-3.94726-2.26758-1.8457-2.01562-3.27539A5.16334,5.16334,0,0,1,817.42046,302.32765Z"/><path class="cls-4" d="M914.23784,303.08351a4.60758,4.60758,0,0,1,5.12305-.75586,4.00163,4.00163,0,0,1,2.60351,2.77149,8.54149,8.54149,0,0,1,0,4.45117,1.70251,1.70251,0,0,0,1.93164,2.01562h16.71289q5.03907,1.09278,3.94727,6.38282-1.51171,3.36034-4.36719,3.1914-1.76367,0-1.76367,2.01563a77.71281,77.71281,0,0,1-1.42773,15.62109,118.11744,118.11744,0,0,1-6.13086,18.64453,4.02724,4.02724,0,0,0,.33593,4.03125A88.54158,88.54158,0,0,0,943.80034,375.73q2.68653,2.93847,0,6.71875a4.84577,4.84577,0,0,1-6.71875.75586A46.17711,46.17711,0,0,1,925.91167,370.439q-1.4297-2.01562-3.02344,0-9.99609,12.09375-19.40039,14.19336-3.86426-.085-4.78711-4.45117a5.9114,5.9114,0,0,1,.25195-2.35156,5.14307,5.14307,0,0,1,1.59571-2.09961q8.0625-4.36817,16.71289-14.69727a3.5407,3.5407,0,0,0,.83984-4.03125,75.52407,75.52407,0,0,1-3.86328-12.3457q-.42187-2.01562-1.51172-.084l-1.51172,2.60352q-2.26758,3.4453-4.53515,2.6875a4.685,4.685,0,0,0-4.03125.67187l-9.23829,4.78711q-2.01562,1.09278-2.0996,1.84766.334,1.00781,2.26757.58789a100.44264,100.44264,0,0,0,9.91016-2.6875,9.28335,9.28335,0,0,1,3.69531-.67187,4.91362,4.91362,0,0,1,3.19141,2.18359,5.42005,5.42005,0,0,1,.67187,4.19922,5.90611,5.90611,0,0,1-.83984,1.67969,8.51547,8.51547,0,0,1-3.35938,1.67968q-3.19335,1.09278-8.90234,2.51953a2.07624,2.07624,0,0,0-1.76367,2.51954,16.26253,16.26253,0,0,1-2.85547,10.834q-4.45312,5.458-10.666,4.95508a38.09511,38.09511,0,0,1-10.07812-2.60352q-4.11621-1.68163-3.35938-5.8789,1.08986-4.45312,5.291-3.94727a7.6094,7.6094,0,0,1,3.35938,1.0918q3.86131,1.84571,6.71875.83984a4.40919,4.40919,0,0,0,2.01562-3.52734q.082-2.01562-1.93164-1.59571-8.56641,1.51173-16.46094,2.43555-4.20117.334-5.03906-4.19922-.252-4.11328,4.03125-5.375,6.55079-.83788,11.50586-1.76367,2.18262-.334,1.25976-1.42773-3.10839-4.36524,2.26758-7.13868l6.80274-2.26757q2.01563-.8379,1.84765-1.0918a6.28391,6.28391,0,0,0-.67187-.168h-7.05469a5.18029,5.18029,0,0,0-2.85547.58789q-3.36034,2.4375-6.71875,4.70313a29.02553,29.02553,0,0,1-6.71875,3.35937q-3.77929,1.09278-5.543-3.86328-.75585-2.51954,1.76368-4.78711a115.60536,115.60536,0,0,0,17.30078-11.42187q2.09764-1.8457.084-1.84766H865.5269q-4.03125-.83789-3.86328-5.207.252-3.10547,4.03125-4.03125h11.33789q2.01563,0,2.01563-2.77149t-2.01563-2.77148h-8.31445q-4.36816-.83789-3.94727-5.207.167-3.19044,3.94727-4.11524h8.31445a1.78158,1.78158,0,0,0,2.01563-2.01562V306.107q.92284-4.36524,5.207-4.11523a4.853,4.853,0,0,1,4.45117,4.19921v2.6875q0,2.10059,2.01562,2.09961h4.8711a16.98623,16.98623,0,0,1,3.86328.33594q1.42676.75586,2.60352-1.0918,2.51952-4.36523,5.8789-3.02343a6.14219,6.14219,0,0,1,3.10742,2.51953,4.90591,4.90591,0,0,1-.5039,5.03906q-2.77149,4.62012-5.79492,8.98633-1.51173,2.10059.5039,2.09961a4.29311,4.29311,0,0,1,3.52735,2.09961q.167.58887.83984-1.42774a72.5684,72.5684,0,0,0,2.93945-20.07226A5.66237,5.66237,0,0,1,914.23784,303.08351Zm-19.98828,19.31641q1.42676-2.09766-.50391-2.09961H890.8062q-2.10059,0-2.09961,2.6875,0,2.85645,1.34375,2.85547,1.42676,0,3.02344-2.01563Zm9.91015,12.68164h-6.46679a5.74139,5.74139,0,0,0-3.94727,1.84766l-1.00781,1.09179q-1.93359,2.10059.168,2.09961h5.96289a10.71672,10.71672,0,0,1,2.93945.41992q1.93067.75586,2.85547-1.34375.50391-1.1748,1.0918-2.35156Q906.67827,334.82961,904.15971,335.08156Zm24.60743-11.8418q0-2.09766-1.93164-2.09961h-3.35938q-2.10059,0-2.09961,2.01563v4.95508A73.28016,73.28016,0,0,0,923.98,345.74757q.67089,2.18556,1.34375.168A63.40863,63.40863,0,0,0,928.76714,323.23976Z"/><path class="cls-4" d="M1002.48882,303.83937a5.08521,5.08521,0,0,1,6.21484-1.00781,4.457,4.457,0,0,1,2.60352,3.86328,1.71677,1.71677,0,0,0,1.93164,1.84766h29.14257q4.2832.92577,3.94727,5.291-.33692,3.36036-4.11523,4.28321h-9.32227q-2.01562,0,.084,1.76367a96.20243,96.20243,0,0,1,11.33789,11.002,12.77951,12.77951,0,0,1,2.1836,3.35938q.92284,1.84863-1.00781,4.36718a5.29428,5.29428,0,0,1-5.03907,1.42774,5.52767,5.52767,0,0,1-1.67968-1.00782l-5.123-5.207a5.55846,5.55846,0,0,0-4.03125-1.84765l-57.69727,2.43554a7.852,7.852,0,0,1-3.35937-.25195,4.13124,4.13124,0,0,1-2.6875-3.69531q-.42187-5.625,5.62695-5.627h4.53516a4.64142,4.64142,0,0,0,2.85547-.67188q2.93847-2.09766,5.62695-4.36719,2.01563-1.67871,0-1.67968H970.07085a4.55453,4.55453,0,0,1-4.03125-3.52735,5.40062,5.40062,0,0,1,.084-2.93945,4.49413,4.49413,0,0,1,3.86328-3.10742h29.39453a1.78158,1.78158,0,0,0,2.01563-2.01563A5.58678,5.58678,0,0,1,1002.48882,303.83937ZM974.606,337.937a7.28464,7.28464,0,0,1,5.291-3.19141h51.23047a8.09383,8.09383,0,0,1,6.29883,4.36719,7.30492,7.30492,0,0,1,.75586,2.6875V376.2339a7.89188,7.89188,0,0,1-3.35938,6.4668,18.39165,18.39165,0,0,1-8.90234,2.18359h-4.61914l-3.61133-.252a5.36934,5.36934,0,0,1-1.84766-10.33008,8.86353,8.86353,0,0,1,3.35938-.25195,14.61589,14.61589,0,0,0,6.71875.41992,3.32952,3.32952,0,0,0,2.18359-3.19141q0-1.09276-2.01562-1.09179H985.188q-2.10059,0-2.0996,2.01562v7.97852a5.46187,5.46187,0,0,1-3.2754,4.45117,5.17538,5.17538,0,0,1-5.459-1.34375,6.34309,6.34309,0,0,1-1.17578-3.02344V341.2964A7.37117,7.37117,0,0,1,974.606,337.937Zm11.16993,6.38281q-2.26758.252-2.6875,2.93945.082.252,2.0996.252h40.9004q2.01563,0,2.01562-.41993a3.04268,3.04268,0,0,0-1.93164-2.60351,10.92334,10.92334,0,0,0-2.51953-.168Zm42.4121,14.61328q0-1.76367-1.93164-1.76367H985.188q-2.10059,0-2.0996,1.5957,0,1.76367,2.01562,1.76367h41.06836Q1028.188,360.52882,1028.188,358.93312Zm-9.57421-38.7168a4.26945,4.26945,0,0,0-3.44336-2.0996h-12.68164a5.90972,5.90972,0,0,0-4.03125,1.93164q-1.34474,1.34472-2.77149,2.51953-1.93359,1.84863.252,1.76367l24.52344-.67188q2.01563,0,.084-1.67968Q1019.53764,321.1421,1018.61382,320.21632Z"/><g class="cls-5"><path class="cls-4" d="M331.56567,105.90274v34.83889a8.03163,8.03163,0,0,1-8.02971,8.03971H124.64247a8.04016,8.04016,0,0,1-8.03971-8.03971V105.90274a8.04016,8.04016,0,0,1,8.03971-8.03971h40.23867a8.03173,8.03173,0,0,1,8.03977,8.02977v10.85962a1.44822,1.44822,0,0,0,0,.34,3.29911,3.29911,0,0,0,3.29988,3.13991h16.40944a3.306,3.306,0,0,0,3.29994-3.13991,1.44822,1.44822,0,0,0,0-.34V105.90274a8.04017,8.04017,0,0,1,8.03971-8.03971h40.27871a8.04024,8.04024,0,0,1,7.99974,7.21979v11.6696a1.02727,1.02727,0,0,0-.01.17,395.16634,395.16634,0,0,1,.02.34,3.30132,3.30132,0,0,0,3.28993,2.96987h16.39943a3.30739,3.30739,0,0,0,3.30989-3.30989V105.08282a8.03056,8.03056,0,0,1,7.98979-7.21979H323.536A8.03163,8.03163,0,0,1,331.56567,105.90274Z"/><path class="cls-6" d="M279.00886,92.27307a14.9457,14.9457,0,0,0-10.72,12.9l-.03,7.99v.02a.84928.84928,0,0,1-.85.85h-7.32a.84716.84716,0,0,1-.84-.85v-7.3l-.04-.71a14.98075,14.98075,0,0,0-14.96-13.51h-40.27a15.05458,15.05458,0,0,0-15.04,15.04v6.49a.84721.84721,0,0,1-.85.84h-7.31a.84721.84721,0,0,1-.85-.84v-6.5a15.03593,15.03593,0,0,0-10.76-14.4,3.2285,3.2285,0,0,1,.29-.66l47.77-82.75a7.93165,7.93165,0,0,1,13.74,0l47.74,82.72A3.06047,3.06047,0,0,1,279.00886,92.27307Z"/><path class="cls-7" d="M110.32275,168.41525a2.44986,2.44986,0,0,1-.02.2699l-.9.12a12.27466,12.27466,0,0,0-9.91992,10.89l-.03,6.52h-6.29v-5.29a12.34242,12.34242,0,0,0-12.33-12.33h-31.51a12.34242,12.34242,0,0,0-12.33,12.33v5.29h-6.3v-5.93l-.03-.58a12.34687,12.34687,0,0,0-10.81-11.03,2.27275,2.27275,0,0,1-.0199-.25989,2.00618,2.00618,0,0,1,.06994-.51,1.352,1.352,0,0,1,.25-.53l37.53-65.03a8.53989,8.53989,0,0,1,14.78,0l37.56995,65.07007a1.3253,1.3253,0,0,1,.21008.49A1.90059,1.90059,0,0,1,110.32275,168.41525Z"/><path class="cls-4" d="M128.37866,180.92035l.00141,34.02471a6.32112,6.32112,0,0,1-6.32775,6.32767h-135.361a6.313,6.313,0,0,1-6.32767-6.32767l-.00141-34.02471a6.321,6.321,0,0,1,6.32767-6.32767H18.40435c.21563,0,.41849.0127.634.02531a6.33434,6.33434,0,0,1,5.65563,5.66832v9.3203a2.60849,2.60849,0,0,0,2.61222,2.61223H40.39275a2.59555,2.59555,0,0,0,2.59954-2.47276.51937.51937,0,0,0,.01269-.13947.5682.5682,0,0,0-.01269-.13947v-8.54679A6.32911,6.32911,0,0,1,49.32,174.59268H80.83158a6.32916,6.32916,0,0,1,6.32767,6.32767v8.54679a.56777.56777,0,0,0-.0127.13947.519.519,0,0,0,.0127.13947,2.59554,2.59554,0,0,0,2.59953,2.47276h13.08651a2.60849,2.60849,0,0,0,2.61222-2.61223v-9.3203a6.344,6.344,0,0,1,5.09768-5.59224c.19016-.0253.36771-.05069.558-.07608.16478-.01261.32964-.02531.49449-.02531h10.44328A6.32918,6.32918,0,0,1,128.37866,180.92035Z"/><path class="cls-4" d="M128.38007,238.93793V414.919H13.01056v-175.981c0-5.3314,3.40921-9.71294,7.7909-10.33077a6.46921,6.46921,0,0,1,1.064-.08009h97.65981a6.46921,6.46921,0,0,1,1.06395.08009C124.97079,229.225,128.38007,233.60653,128.38007,238.93793Z"/><path class="cls-8" d="M428.33264,168.41525a2.39253,2.39253,0,0,1-.02.2699l-.8899.12a12.26344,12.26344,0,0,0-9.91992,10.89l-.03,6.52h-6.3v-5.29a12.34245,12.34245,0,0,0-12.33007-12.33h-31.51a12.34012,12.34012,0,0,0-12.31983,12.33v5.29h-6.3v-5.93l-.03-.58a12.35652,12.35652,0,0,0-10.81006-11.03,2.273,2.273,0,0,1-.02-.25989,2.73189,2.73189,0,0,1,.06-.51,1.70291,1.70291,0,0,1,.25-.53l37.54-65.03a8.5312,8.5312,0,0,1,14.77,0l37.56983,65.07007a1.538,1.538,0,0,1,.22021.49A2.02425,2.02425,0,0,1,428.33264,168.41525Z"/><path class="cls-4" d="M467.80481,180.92035l.00141,34.02471a6.32111,6.32111,0,0,1-6.32774,6.32767H323.87526a6.313,6.313,0,0,1-6.32767-6.32767l-.00141-34.02471a6.321,6.321,0,0,1,6.32767-6.32767h12.546c.21563,0,.41849.0127.634.02531a6.33434,6.33434,0,0,1,5.65563,5.66832v9.3203a2.60849,2.60849,0,0,0,2.61222,2.61223h13.08651a2.59555,2.59555,0,0,0,2.59954-2.47276.51937.51937,0,0,0,.01269-.13947.5682.5682,0,0,0-.01269-.13947v-8.54679a6.32911,6.32911,0,0,1,6.32766-6.32767h31.51163a6.32916,6.32916,0,0,1,6.32767,6.32767v8.54679a.5682.5682,0,0,0-.01269.13947.51937.51937,0,0,0,.01269.13947,2.59554,2.59554,0,0,0,2.59953,2.47276h13.08651a2.60849,2.60849,0,0,0,2.61223-2.61223v-9.3203a6.344,6.344,0,0,1,5.09767-5.59224c.19016-.0253.36771-.05069.558-.07608.16478-.01261.32964-.02531.49449-.02531h31.854A6.32918,6.32918,0,0,1,467.80481,180.92035Z"/><path class="cls-4" d="M435.15645,238.89508V414.919H317.54618V238.89508c0-5.3314,3.40921-9.713,7.7909-10.33078a6.47031,6.47031,0,0,1,1.06395-.08009h99.90058a6.4701,6.4701,0,0,1,1.06394.08009C431.74717,229.18213,435.15645,233.56368,435.15645,238.89508Z"/><path class="cls-4" d="M291.69572,155.86276h-137.34a15.85044,15.85044,0,0,0-15.85,15.86V389.79281a214.63422,214.63422,0,0,0,169.04.86988V171.72274A15.8569,15.8569,0,0,0,291.69572,155.86276Zm-116.31995,66.87a13.065,13.065,0,1,1,13.06-13.07006A13.05726,13.05726,0,0,1,175.37577,222.73275Zm66.84,35.04a41.44713,41.44713,0,0,1-36.36,0c-20.1-9.34008-19.51-36.93-3.06-33.3,1.23.28,2.53.51,3.9.71h.01a115.26993,115.26993,0,0,0,17.47.91h.09a111.84817,111.84817,0,0,0,17.11005-.91h.02c1.35-.2,2.66-.42994,3.9-.71C261.73576,220.84274,262.32572,248.43271,242.21574,257.77279Zm29.09-35.04a13.065,13.065,0,1,1,13.07-13.07006A13.07858,13.07858,0,0,1,271.30576,222.73275Z"/></g><path class="cls-4" d="M546.9054,262.59807V165.79045A184.74,184.74,0,0,1,533.006,201.392q-8.53857,17.31738-14.38672,17.31347-8.77881,0-8.77881-10.24121,0-3.89795,4.877-10.72949a195.30933,195.30933,0,0,0,30.2373-66.32715H522.76428q-11.46459,0-11.46094-9.2666,0-9.26367,11.46094-9.26563H546.9054V79.46819q-20.729,2.92528-26.82325,2.92578-8.77881,0-8.77881-10.24121,0-4.875,3.90186-6.584,4.14331-1.70361,17.55713-3.16992A285.00333,285.00333,0,0,0,579.33752,54.352l4.877-.73145q5.3606-.73242,8.16894,2.07227,2.80005,2.80664,2.8042,8.16894,0,3.90381-4.38965,6.82813-4.63476,3.17137-25.11621,6.33984v35.8457h17.55713q11.45874,0,11.46094,9.26563,0,9.271-11.46094,9.2666H565.68176v31.457a7.18565,7.18565,0,0,1,6.584-3.6582q2.19434,0,6.33984,3.6582a75.34672,75.34672,0,0,1,9.51025,10.72852q10.72779,14.39208,10.7295,18.28906,0,8.53857-8.291,8.53418-4.14916,0-9.02246-7.80274a183.40572,183.40572,0,0,0-13.41162-18.53222l-2.43848-4.14551v92.66211q0,10.97314-9.51025,10.97363Q546.902,273.5717,546.9054,262.59807Zm35.8457-8.291q0-8.7788,9.51025-8.77832H649.3219V216.75432H610.30627q-9.51049,0-9.51025-8.53418,0-8.53272,9.51025-8.53516H649.3219V174.56877l-39.25977,2.68262q-5.61255.24609-8.53466-2.19434-2.926-2.436-2.92627-7.31543,0-4.63037,3.17041-6.82812,3.16553-2.43457,19.50781-2.68262,47.3042-1.46337,80.95752-7.55957l3.16992-.4873q4.875-.731,7.68115,2.07324,2.80078,2.80518,2.8042,7.9248,0,5.85205-10.729,8.53418-3.90381.97706-36.3335,4.38965V199.685h40.72266q9.26441,0,9.26611,8.53516,0,8.53857-9.26611,8.53418H668.82971v28.77441H722.964q9.75,0,9.75391,9.02246,0,8.77881-9.75391,8.77833H592.26135Q582.75086,263.32952,582.7511,254.30705Zm21.94629-118.50976q-5.12037-4.875-4.38916-15.85059V84.101q0-11.21338,4.999-16.33789,4.99512-5.12109,15.728-4.38867h76.56836q11.21337,0,16.33789,4.998,5.12109,5.001,4.38916,15.72852v35.8457q0,11.46534-4.877,16.46-4.88011,5.001-15.85009,4.26758H621.03528Q609.81677,140.67424,604.69739,135.79729Zm94.85742-20.72754V88.978q0-7.55567-8.04736-8.04687H626.64368q-7.56079,0-8.04688,8.04687v26.0918q0,7.56153,8.04688,8.04687h64.86377Q699.30921,123.11662,699.55481,115.06975Z"/><path class="cls-4" d="M759.54114,133.35881a9.76234,9.76234,0,0,1,1.585-4.87695,40.52558,40.52558,0,0,1,5.24267-6.584A218.85031,218.85031,0,0,0,808.067,58.74065q2.926-7.06934,9.02246-7.07129,10.727,0,10.72949,8.77832,0,5.12109-18.77637,34.87012V186.517q0,10.48827-9.51025,10.48632-9.27027,0-9.26612-10.48632V121.16643q-16.58568,21.94629-22.43408,21.94629Q759.53894,143.11272,759.54114,133.35881ZM982.41809,256.01409q0,9.019-11.2168,9.02246H770.27063q-10.73364,0-10.72949-9.02246,0-8.77881,10.72949-8.77832h89.98v-23.166H790.26623q-9.75585,0-9.7539-8.53418,0-8.53272,9.7539-8.53516h69.98438V194.32073q0-9.50977,10.2417-9.50977,9.75,0,9.75391,9.50977v12.67968h71.44726q5.36133,0,7.80274,2.07325,2.43456,2.07422,2.43945,6.46191,0,8.53857-10.24219,8.53418H880.24622v23.166h90.95507Q982.41615,247.23577,982.41809,256.01409ZM890.97571,128.23772V115.558h-30.7251q-10.48755,0-15.97217-5.12109-5.48657-5.12111-5.48633-15.11914V78.97991q0-10.24073,5.6084-15.48438,5.6067-5.23974,15.8501-4.75488h81.44482q21.7002,0,21.70313,20.23926V95.3178q0,10.48827-5.48633,15.60644-5.4873,5.12109-16.2168,4.63379H909.75159v12.67969h61.938q9.75,0,9.75391,8.53515,0,8.29248-9.75391,8.29H919.74963q25.35718,20.24415,49.98877,26.0918,12.92286,3.17284,12.92383,10.72949,0,10.002-9.02148,9.99805-10.002,0-31.21289-12.43652a155.35338,155.35338,0,0,1-32.67627-25.11621v34.13867q0,4.39013-2.56006,6.70605a9.95885,9.95885,0,0,1-6.94971,2.31641q-9.27025,0-9.26611-9.02246V155.061a212.17458,212.17458,0,0,1-34.87061,25.11621q-20.2434,11.46534-28.28613,11.46094-8.53857,0-8.53516-9.26563a7.33484,7.33484,0,0,1,3.292-6.09668,46.07067,46.07067,0,0,1,10.12011-5.12109q29.01563-10.72705,48.76953-26.0918H829.28186q-9.75587,0-9.75391-8.29,0-8.53418,9.75391-8.53515ZM860.25061,97.391q1.949,1.82813,6.33984,2.07226h68.521q4.39159,0,6.09766-1.82812,1.70214-1.82959,1.94921-6.46289v-8.29q0-4.39014-1.82812-6.21875-1.82812-1.82812-6.21875-1.82813h-68.521q-4.38867,0-6.21777,1.82813-1.82886,1.82959-2.07275,6.21875v8.29Q858.29993,95.56243,860.25061,97.391Z"/><path class="cls-6" d="M715.53166,151.91241q-2.89448-2.88732-7.921-2.1368l-3.26815.50194q-34.70036,6.28853-83.48035,7.79516-16.84825.25337-20.1156,2.76622-3.26975,2.26348-3.26814,7.03982,0,5.03369,3.01639,7.54335,3.01877,2.51683,8.80057,2.26268l40.48295-2.76623,20.1156-1.50741q33.43836-3.51834,37.465-4.527,11.06166-2.763,11.06325-8.80058Q718.42217,154.8037,715.53166,151.91241Z"/><path class="cls-7" d="M593.49843,55.27934q-2.90274-2.89554-8.44694-2.14369l-5.04324.75665a294.6709,294.6709,0,0,1-48.1632,8.32153q-13.8701,1.5125-18.15549,3.27827-4.0365,1.76657-4.0341,6.80821,0,10.591,9.07735,10.59063,6.30045,0,27.73779-3.0258v.13473a23.34557,23.34557,0,0,1,2.90643-.40479,5.07274,5.07274,0,0,1,.56469-.00729,117.10756,117.10756,0,0,1,16.18007-2.28153q20.969-3.2557,25.73712-6.51929,4.53987-3.02617,4.53986-7.06069Q596.39877,58.18327,593.49843,55.27934Z"/><path class="cls-9" d="M880.19541,224.11446l71.88994,0q10.30653,0,10.30575-8.58762,0-4.41741-2.4536-6.50251-2.456-2.08043-7.85216-2.08509l-71.88994,0H860.07523l-70.41747,0q-9.81675,0-9.81441,8.58762,0,8.58995,9.81442,8.5876l70.41747,0Z"/><path class="cls-8" d="M809.97589,94.90586q19.56064-31.00517,19.56529-36.35556,0-9.17936-11.21949-9.17934-6.37731,0-9.43548,7.39455a228.86326,228.86326,0,0,1-43.6029,66.04355,42.39506,42.39506,0,0,0-5.48289,6.88391,10.20584,10.20584,0,0,0-1.658,5.09991q0,10.20225,8.66953,10.19982,6.12037,0,23.46022-22.94961S809.2474,95.53952,809.97589,94.90586Z"/><circle class="cls-4" cx="643.23354" cy="64.15225" r="10.68312"/><circle class="cls-4" cx="610.98079" cy="64.15225" r="10.68312"/><rect class="cls-4" x="600.37857" y="62.37313" width="21.20443" height="19.17572"/><circle class="cls-4" cx="707.73905" cy="64.15225" r="10.68312"/><circle class="cls-4" cx="675.4863" cy="64.15225" r="10.68312"/><rect class="cls-4" x="697.13684" y="62.37313" width="21.20443" height="19.17572"/><circle class="cls-4" cx="849.33905" cy="58.69958" r="10.68312"/><rect class="cls-4" x="838.73684" y="60.05408" width="17.04788" height="19.17572"/><circle class="cls-4" cx="952.71048" cy="58.69958" r="10.68312"/><circle class="cls-4" cx="918.25334" cy="58.69958" r="10.68312"/><circle class="cls-4" cx="883.79619" cy="58.69958" r="10.68312"/><rect class="cls-4" x="945.43329" y="60.05408" width="17.87941" height="19.17572"/></g></svg>