<svg id="圖層_1" data-name="圖層 1" xmlns="http://www.w3.org/2000/svg" viewBox="0 0 127.84265 143.85686"><defs><style>.cls-1{fill:#6d6d6d;}.cls-2{fill:#ec9d00;}.cls-3{fill:#f7bf38;}</style></defs><path class="cls-1" d="M79.50482,121.7529l-30.9483.045a2.577,2.577,0,0,0,.0049,5.1074l30.9483-.0488a2.57609,2.57609,0,0,0-.0049-5.1036Z"/><path class="cls-1" d="M79.51552,128.8848l-30.9502.0469a2.58117,2.58117,0,0,0,.0078,5.1142l3.3096-.0058,3.3438,6.7773s1.6084,2.1807,2.4433,2.415c.8193.2413,10.3486,1.2862,13.2998-.0185a4.851,4.851,0,0,0,2.5576-2.5977c.8682-1.664,2.6905-5.08,3.5088-6.6113l2.4864-.0039a2.58366,2.58366,0,0,0-.0069-5.1162Z"/><path class="cls-1" d="M79.494,114.6162l-30.9482.0479a2.57893,2.57893,0,0,0,.0058,5.1103l30.9483-.0459a2.58117,2.58117,0,0,0-.0059-5.1123Z"/><path class="cls-2" d="M121.27332,90.1084q-3.9111-1.9482-7.8242-3.8965a3.30813,3.30813,0,0,0-4.4697,1.2051c-.0059.0137-.0127.0274-.0195.044a3.30314,3.30314,0,0,0,1.2031,4.4677q3.917,1.9497,7.8252,3.8975a3.24834,3.24834,0,0,0,4.8779-3.0791A2.96468,2.96468,0,0,0,121.27332,90.1084Z"/><path class="cls-2" d="M18.93642,87.4639a3.30817,3.30817,0,0,0-4.4824-1.1582q-3.90825,1.9584-7.8115,3.9189A2.92874,2.92874,0,0,0,5.077,92.8574a3.33843,3.33843,0,0,0,.4278,1.8936,3.285,3.285,0,0,0,4.4814,1.1582q3.90825-1.9614,7.8135-3.917a3.31282,3.31282,0,0,0,1.1582-4.4844A.467.467,0,0,1,18.93642,87.4639Z"/><path class="cls-2" d="M123.77242,48.8487q-4.28175.8979-8.5538,1.7978a2.875,2.875,0,0,0-1.8252,1.2773,2.80882,2.80882,0,0,0-.4316.9952,3.71131,3.71131,0,0,0-.0537,1.7412,1.06723,1.06723,0,0,1,.0244.1074,2.81077,2.81077,0,0,0,2.7588,2.3633,3.41007,3.41007,0,0,0,1.2549-.0547q4.2597-.9537,8.5273-1.9102C129.60542,54.2393,127.87982,47.9844,123.77242,48.8487Z"/><path class="cls-2" d="M14.955,54.3233a2.85327,2.85327,0,0,0-2.3037-3.5196q-4.2642-.955-8.5293-1.9062a3.30394,3.30394,0,0,0-4.0186,2.2988c-.0078.0352-.0166.0742-.0225.1094a3.30219,3.30219,0,0,0,2.2989,4.0156q4.2744.8994,8.5527,1.7998A3.30954,3.30954,0,0,0,14.955,54.3233Z"/><path class="cls-2" d="M105.15612,14.6416c-.0224-.0195-.0468-.0371-.0673-.0566-1.2725-1.0225-3.4385-1.4649-4.6299.0303q-2.71875,3.4203-5.4405,6.8418a3.3429,3.3429,0,0,0,.0323,4.6308,2.49759,2.49759,0,0,0,.2402.209,3.2624,3.2624,0,0,0,4.4024-.2315q2.74365-3.3984,5.4941-6.7968C106.21572,17.9961,106.64542,15.8369,105.15612,14.6416Z"/><path class="cls-2" d="M32.76062,21.4942q-2.7201-3.42195-5.4433-6.837c-1.1973-1.5107-3.378-.9775-4.6309.0293-.0224.0176-.042.0362-.0674.0538-1.497,1.2021-.9863,3.3789.0332,4.6298q2.7525,3.3912,5.5108,6.7852a2.786,2.786,0,0,0,2.5127.9219,3.48549,3.48549,0,0,0,2.1162-.9561,3.03484,3.03484,0,0,0,.8935-1.8213A3.8284,3.8284,0,0,0,32.76062,21.4942Z"/><path class="cls-2" d="M63.93542,0a.47746.47746,0,0,1-.0488.0039,3.30866,3.30866,0,0,0-3.2939,3.252q.00435,4.371.0127,8.7431a3.31021,3.31021,0,0,0,3.2578,3.293.39734.39734,0,0,1,.0468-.001,3.08113,3.08113,0,0,0,2.1797-.8144,2.97435,2.97435,0,0,0,1.1104-2.4385q-.0015-4.3725-.0137-8.7393A3.30689,3.30689,0,0,0,63.93542,0Z"/><path class="cls-3" d="M74.577,69.6719c.3125-.6318.3702-1.1162.1719-1.4395-.1943-.3193-.3974-.4814-.5996-.4814-.458.001-1.0879.6348-1.3896,1.2334a4.77258,4.77258,0,0,0-.2315,2.9228A6.30013,6.30013,0,0,0,74.577,69.6719Z"/><path class="cls-3" d="M61.28212,68.4346a2.242,2.242,0,0,0,.0528-1.6856.20927.20927,0,0,0-.2139-.1113,1.29864,1.29864,0,0,0-.4736.1211,2.70177,2.70177,0,0,0-1.3633,1.4219,4.1729,4.1729,0,0,0-.2032,3.3603c.0782-.0918.1573-.1865.2344-.2822A14.24966,14.24966,0,0,0,61.28212,68.4346Z"/><path class="cls-3" d="M51.42572,82.1895a200.4319,200.4319,0,0,1,11.1025,30.7129l4.6924-.0069a203.54516,203.54516,0,0,1,10.2461-29.0634,13.47568,13.47568,0,0,1-6.8203-7.6045,13.51723,13.51723,0,0,1-6.6065.956,12.49829,12.49829,0,0,1-4.8681-1.373A25.8167,25.8167,0,0,1,51.42572,82.1895Z"/><path class="cls-3" d="M44.40032,76.5596a1.73705,1.73705,0,0,0-.2031-.0117c-.3868,0-.8428.1552-.9278.4892a2.00718,2.00718,0,0,0,.4717,1.6807,4.6316,4.6316,0,0,0,3.2979,1.7021,1.8301,1.8301,0,0,0,.2685-.0166c-.248-.5117-.5059-1.0185-.7656-1.5283C46.02142,77.8086,45.36612,76.7061,44.40032,76.5596Z"/><path class="cls-3" d="M84.30652,77.4346l-.0127-.0039c-.1025.001-.417.1308-1.1406,1.3135l-.0576.0947c-.4522.8945-.9023,1.8125-1.3691,2.789a3.781,3.781,0,0,0,2.3886-1.0195,2.41633,2.41633,0,0,0,.5977-1.8994C84.65422,77.8272,84.42572,77.4961,84.30652,77.4346Z"/><path class="cls-3" d="M63.87782,22.791a41.69179,41.69179,0,0,0-17.3467,79.5733l.0127,8.0986a2.463,2.463,0,0,0,2.4707,2.459l10.4512-.0137a194.83113,194.83113,0,0,0-10.8428-29.7734,6.889,6.889,0,0,1-6.1464-1.6465,6.17313,6.17313,0,0,1-2.1905-4.6465,3.305,3.305,0,0,1,1.6319-2.5781,4.10036,4.10036,0,0,1,2.1953-.6709c2.3095-.0049,4.1406,2.083,5.0127,3.8662q.501.9873.9931,1.9941a20.97871,20.97871,0,0,0,6.836-5.5576,6.084,6.084,0,0,1-1.0772-2.7636,8.55711,8.55711,0,0,1,1.9971-5.9649c1.4726-1.6914,3.3535-1.9902,5.0361-.7724a3.6563,3.6563,0,0,1,1.6065,2.5068c.2968,2.2715-1.6748,4.6807-3.1094,6.4424-.0674.0771-.1318.1543-.1924.2343a6.48883,6.48883,0,0,0,1.3174.4131,11.55256,11.55256,0,0,0,6.3994-.1953q.457-.17715.9043-.3769a18.07359,18.07359,0,0,1-.2744-1.8145,6.25383,6.25383,0,0,1,2.2539-5.9424,3.938,3.938,0,0,1,2.46-.8818,2.88726,2.88726,0,0,1,2.1601.876,4.25219,4.25219,0,0,1,1.2959,3.4248c-.2305,2.5078-2.5322,4.4258-3.5137,5.1347-.2851.2051-.582.4073-.8867.6006.7549,2.0967,2.3447,5.2149,5.335,6.3887.6103-1.2881,1.2314-2.5625,1.8564-3.7979a1.50787,1.50787,0,0,1,.1553-.248c.5449-.832,1.9648-2.6943,3.7178-2.6973a2.66308,2.66308,0,0,1,1.7881.7217c1.6787,1.4766,1.7451,3.9834,1.0703,5.8115-.8438,2.2813-3.083,3.6446-5.9942,3.6504-.3047,0-.6113-.0146-.9179-.0429a198.36677,198.36677,0,0,0-10.0577,28.289l8.7237-.0137a2.46846,2.46846,0,0,0,2.4648-2.4707l-.0097-8.0976a41.6906,41.6906,0,0,0-17.586-79.5186Z"/></svg>