<svg xmlns="http://www.w3.org/2000/svg" viewBox="0 0 580.26832 623.06294"><defs><style>.cls-1{isolation:isolate;}.cls-2{opacity:0.5;mix-blend-mode:multiply;}.cls-3{fill:#fff;}.cls-4{fill:#fefefe;}.cls-5{fill:#fcfcfc;}.cls-6{fill:#fbfbfb;}.cls-7{fill:#f9f9f9;}.cls-8{fill:#f8f8f8;}.cls-9{fill:#f6f6f6;}.cls-10{fill:#f5f5f5;}.cls-11{fill:#f3f3f3;}.cls-12{fill:#f2f2f2;}.cls-13{fill:#f0f0f0;}.cls-14{fill:#efefef;}.cls-15{fill:#ededed;}.cls-16{fill:#ececec;}.cls-17{fill:#eaeaea;}.cls-18{fill:#e9e9e9;}.cls-19{fill:#e7e7e7;}.cls-20{fill:#e6e6e6;}.cls-21{fill:#e4e4e4;}.cls-22{fill:#e3e3e3;}.cls-23{fill:#e1e1e1;}.cls-24{fill:#e0e0e0;}.cls-25{fill:#dedede;}.cls-26{fill:#ddd;}.cls-27{fill:#dbdbdb;}.cls-28{fill:#dadada;}.cls-29{fill:#d8d8d8;}.cls-30{fill:#d7d7d7;}.cls-31{fill:#d5d5d5;}.cls-32{fill:#d4d4d4;}.cls-33{fill:#d2d2d2;}.cls-34{fill:#d1d1d1;}.cls-35,.cls-36{fill:#ffc517;}.cls-36{font-size:72px;font-family:HanWangHeiLight;letter-spacing:0.1em;}.cls-37{font-size:29px;fill:#4f4f4f;letter-spacing:0.19999em;}</style></defs><g class="cls-1"><g id="圖層_1" data-name="圖層 1"><g class="cls-2"><rect class="cls-3" y="196.54139" width="426.52204" height="426.52156"/><rect class="cls-4" x="4.95956" y="191.58183" width="426.52204" height="426.52157"/><rect class="cls-5" x="9.91911" y="186.62227" width="426.52204" height="426.52159"/><rect class="cls-6" x="14.87867" y="181.66271" width="426.52204" height="426.5216"/><rect class="cls-7" x="19.83823" y="176.70316" width="426.52204" height="426.52162"/><rect class="cls-8" x="24.79779" y="171.7436" width="426.52204" height="426.52163"/><rect class="cls-9" x="29.75734" y="166.78404" width="426.52204" height="426.52165"/><rect class="cls-10" x="34.7169" y="161.82448" width="426.52204" height="426.52167"/><rect class="cls-11" x="39.67646" y="156.86493" width="426.52204" height="426.52168"/><rect class="cls-12" x="44.63602" y="151.90537" width="426.52204" height="426.5217"/><rect class="cls-13" x="49.59557" y="146.94581" width="426.52204" height="426.52171"/><rect class="cls-14" x="54.55513" y="141.98625" width="426.52204" height="426.52173"/><rect class="cls-15" x="59.51469" y="137.0267" width="426.52204" height="426.52174"/><rect class="cls-16" x="64.47425" y="132.06714" width="426.52204" height="426.52176"/><rect class="cls-17" x="69.4338" y="127.10758" width="426.52204" height="426.52177"/><rect class="cls-18" x="74.39336" y="122.14802" width="426.52204" height="426.52179"/><rect class="cls-19" x="79.35292" y="117.18847" width="426.52204" height="426.5218"/><rect class="cls-20" x="84.31248" y="112.22891" width="426.52204" height="426.52182"/><rect class="cls-21" x="89.27203" y="107.26935" width="426.52204" height="426.52184"/><rect class="cls-22" x="94.23159" y="102.30979" width="426.52204" height="426.52185"/><rect class="cls-23" x="99.19115" y="97.35024" width="426.52204" height="426.52187"/><rect class="cls-24" x="104.15071" y="92.39068" width="426.52204" height="426.52188"/><rect class="cls-25" x="109.11026" y="87.43112" width="426.52204" height="426.5219"/><rect class="cls-26" x="114.06982" y="82.47156" width="426.52204" height="426.52191"/><rect class="cls-27" x="119.02938" y="77.51201" width="426.52204" height="426.52193"/><rect class="cls-28" x="123.98894" y="72.55245" width="426.52204" height="426.52194"/><rect class="cls-29" x="128.94849" y="67.59289" width="426.52204" height="426.52196"/><rect class="cls-30" x="133.90805" y="62.63333" width="426.52204" height="426.52197"/><rect class="cls-31" x="138.86761" y="57.67378" width="426.52204" height="426.52199"/><rect class="cls-32" x="143.82717" y="52.71422" width="426.52204" height="426.52201"/><rect class="cls-33" x="148.78672" y="47.75466" width="426.52204" height="426.52202"/><rect class="cls-34" x="153.74628" y="42.7951" width="426.52204" height="426.52204"/></g><rect class="cls-3" x="153.74628" y="42.7951" width="426.52204" height="426.52204"/><path class="cls-35" d="M398.44642,90.21366c-3.65167,20.02285-9.70455,34.40995-14.53238,43.31858a3.954,3.954,0,0,0,5.38785,5.36052c40.41728-23.557,58.13817-57.91473,60.34039-85.461,1.8992-23.76322-14.30943-48.24086-38.882-52.698a45.20338,45.20338,0,1,0-12.31386,89.48Z"/><path class="cls-35" d="M499.26978,90.21366c-3.65215,20.02285-9.70456,34.40995-14.53238,43.31858a3.95374,3.95374,0,0,0,5.38737,5.36052c40.41824-23.557,58.13865-57.91473,60.34039-85.461,1.89968-23.76322-14.30895-48.24086-38.881-52.698a45.20344,45.20344,0,1,0-12.31434,89.48Z"/><text class="cls-36" transform="translate(208.60719 213.51332)">課程好評<tspan class="cls-37"><tspan x="53.2998" y="77">學生開心學習</tspan><tspan x="53.2998" y="127">家長信任交付</tspan><tspan x="53.2998" y="177">打造品牌口碑</tspan></tspan></text></g></g></svg>