<?xml version="1.0" encoding="utf-8"?>
<!-- Generator: Adobe Illustrator 24.3.0, SVG Export Plug-In . SVG Version: 6.00 Build 0)  -->
<svg version="1.1" xmlns="http://www.w3.org/2000/svg" xmlns:xlink="http://www.w3.org/1999/xlink" x="0px" y="0px"
	 viewBox="0 0 1337.4 680.31" style="enable-background:new 0 0 1337.4 680.31;" xml:space="preserve">
<style type="text/css">
	.st0{fill:#040000;}
	.st1{fill:none;stroke:#000000;stroke-miterlimit:10;}
	.st2{fill:none;stroke:#040000;stroke-miterlimit:10;}
	.st3{display:none;}
	.st4{display:inline;fill:#1C1A1A;}
	.st5{display:inline;}
	.st6{fill:#C57B77;}
	.st7{clip-path:url(#SVGID_2_);}
	.st8{clip-path:url(#SVGID_4_);}
	.st9{fill:#89B2CB;}
	.st10{fill:#A9BE7B;}
	.st11{fill:#937071;}
	.st12{fill:#DDB182;}
	.st13{fill:#BD8C7F;}
	.st14{fill:#F2EDE8;}
	.st15{fill:#E8DED9;}
	.st16{fill:#D1C8C4;}
	.st17{fill:#B3A19C;}
	.st18{fill:#2E2829;}
	.st19{fill:#554343;}
	.st20{clip-path:url(#SVGID_6_);}
	.st21{fill:#FFFFFF;}
	.st22{clip-path:url(#SVGID_8_);}
	.st23{fill:#FFFFFF;stroke:#040000;stroke-width:2.5;stroke-linecap:round;stroke-linejoin:round;stroke-miterlimit:10;}
	.st24{clip-path:url(#SVGID_10_);}
	.st25{fill:#040000;stroke:#040000;stroke-width:2.5;stroke-linecap:round;stroke-linejoin:round;stroke-miterlimit:10;}
	.st26{clip-path:url(#SVGID_12_);}
	.st27{clip-path:url(#SVGID_14_);}
	.st28{fill:none;}
	.st29{clip-path:url(#SVGID_16_);}
	.st30{clip-path:url(#SVGID_20_);}
	.st31{clip-path:url(#SVGID_22_);}
	.st32{clip-path:url(#SVGID_24_);}
	.st33{clip-path:url(#SVGID_26_);}
	.st34{fill:#7F4221;}
	.st35{fill:none;stroke:#574544;stroke-miterlimit:10;}
	.st36{clip-path:url(#SVGID_28_);}
	.st37{clip-path:url(#SVGID_30_);}
	.st38{clip-path:url(#SVGID_32_);}
	.st39{clip-path:url(#SVGID_34_);}
	.st40{clip-path:url(#SVGID_36_);}
	.st41{clip-path:url(#SVGID_38_);}
	.st42{clip-path:url(#SVGID_40_);}
	.st43{clip-path:url(#SVGID_42_);}
	.st44{clip-path:url(#SVGID_44_);}
	.st45{clip-path:url(#SVGID_46_);}
	.st46{clip-path:url(#SVGID_48_);}
	.st47{fill:#E7DDD8;}
	.st48{clip-path:url(#SVGID_50_);}
	.st49{fill:#060001;}
	.st50{fill:#EFEBE9;stroke:#000000;stroke-miterlimit:10;}
	.st51{fill:none;stroke:#554343;stroke-width:15;stroke-linecap:round;stroke-miterlimit:10;}
</style>
<g id="圖層_2">
</g>
<g id="圖層_3" class="st3">
	<rect x="0" y="160.76" class="st4" width="1337.4" height="680.31"/>
</g>
<g id="圖層_4">
	<g>
		<defs>
			<path id="SVGID_19_" d="M593.77,312.03c0,123.64-100.59,224.23-224.23,224.23c-123.65,0-224.24-100.59-224.24-224.23
				c0-123.64,100.59-224.23,224.24-224.23C493.18,87.8,593.77,188.39,593.77,312.03z"/>
		</defs>
		<clipPath id="SVGID_2_">
			<use xlink:href="#SVGID_19_"  style="overflow:visible;"/>
		</clipPath>
		<g class="st7">
			<path class="st14" d="M476.87,245.67v34.84c0,4.44-3.59,8.04-8.03,8.04H269.94c-4.44,0-8.04-3.6-8.04-8.04v-34.84
				c0-4.44,3.6-8.04,8.04-8.04h40.24c4.44,0,8.04,3.59,8.04,8.03v10.86c-0.01,0.06-0.01,0.11-0.01,0.17c0,0.06,0,0.11,0.01,0.17
				c0.08,1.75,1.53,3.14,3.3,3.14h16.41c1.76,0,3.22-1.39,3.3-3.14c0.01-0.06,0.01-0.11,0.01-0.17c0-0.06,0-0.11-0.01-0.17v-10.85
				c0-4.44,3.6-8.04,8.04-8.04h40.28c4.16,0,7.59,3.16,8,7.22v11.67c-0.01,0.06-0.01,0.12-0.01,0.17c0,0.06,0,0.12,0.01,0.17
				c0,0.06,0,0.12,0.01,0.17c0.17,1.67,1.57,2.97,3.29,2.97h16.4c1.83,0,3.31-1.48,3.31-3.31v-11.84c0.41-4.06,3.83-7.22,7.99-7.22
				h40.29C473.28,237.63,476.87,241.23,476.87,245.67z"/>
			<path class="st12" d="M424.31,232.04c-5.75,1.66-10.09,6.66-10.72,12.9l-0.03,7.99c0,0.01,0,0.01,0,0.02
				c0,0.47-0.38,0.85-0.85,0.85h-7.32c-0.46,0-0.84-0.38-0.84-0.85v-7.3l-0.04-0.71c-0.77-7.7-7.21-13.51-14.96-13.51h-40.27
				c-8.29,0-15.04,6.74-15.04,15.04v6.49c0,0.46-0.38,0.84-0.85,0.84h-7.31c-0.47,0-0.85-0.38-0.85-0.84v-6.5
				c0-6.8-4.54-12.56-10.76-14.4c0.07-0.23,0.17-0.45,0.29-0.66l47.77-82.75c3.05-5.29,10.68-5.29,13.74,0l47.74,82.72
				C424.14,231.59,424.24,231.81,424.31,232.04z"/>
			<g>
				<path class="st6" d="M255.62,308.18c0,0.09-0.01,0.18-0.02,0.27l-0.9,0.12c-5.39,1.05-9.37,5.43-9.92,10.89l-0.03,6.52h-6.29
					v-5.29c0-6.8-5.53-12.33-12.33-12.33h-31.51c-6.8,0-12.33,5.53-12.33,12.33v5.29h-6.3v-5.93l-0.03-0.58
					c-0.55-5.74-5.09-10.35-10.81-11.03c-0.01-0.09-0.02-0.17-0.02-0.26c0-0.22,0.04-0.39,0.07-0.51c0.04-0.18,0.12-0.36,0.25-0.53
					l37.53-65.03c1.56-2.66,4.32-4.26,7.4-4.26c3.07,0,5.83,1.6,7.38,4.26l37.57,65.07c0.1,0.15,0.18,0.32,0.21,0.49
					C255.56,307.75,255.62,307.94,255.62,308.18z"/>
			</g>
			<path class="st14" d="M273.68,320.68l0,34.02c0,3.5-2.83,6.33-6.33,6.33H131.99c-3.51,0-6.33-2.83-6.33-6.33l0-34.02
				c0-3.49,2.82-6.33,6.33-6.33h31.71c0.22,0,0.42,0.01,0.63,0.03c2.98,0.3,5.36,2.68,5.66,5.67v9.32c0,1.45,1.17,2.61,2.61,2.61
				h13.09c1.39,0,2.54-1.09,2.6-2.47c0.01-0.05,0.01-0.09,0.01-0.14c0-0.04,0-0.09-0.01-0.14v-8.55c0-3.49,2.83-6.33,6.33-6.33
				h31.51c3.5,0,6.33,2.84,6.33,6.33v8.55c-0.01,0.05-0.01,0.1-0.01,0.14c0,0.05,0,0.09,0.01,0.14c0.06,1.38,1.2,2.47,2.6,2.47
				h13.09c1.45,0,2.61-1.17,2.61-2.61v-9.32c0.28-2.8,2.37-5.06,5.1-5.59c0.19-0.03,0.37-0.05,0.56-0.08
				c0.16-0.01,0.33-0.03,0.49-0.03h10.44C270.85,314.36,273.68,317.2,273.68,320.68z"/>
			<path class="st15" d="M273.68,378.7v175.98H158.31V378.7c0-5.33,3.41-9.71,7.79-10.33c0.34-0.06,0.7-0.08,1.06-0.08h97.66
				c0.37,0,0.72,0.02,1.06,0.08C270.27,368.99,273.68,373.37,273.68,378.7z"/>
			<g>
				<path class="st9" d="M573.63,308.18c0,0.09-0.01,0.18-0.02,0.27l-0.89,0.12c-5.39,1.05-9.38,5.43-9.92,10.89l-0.03,6.52h-6.3
					v-5.29c0-6.8-5.53-12.33-12.33-12.33h-31.51c-6.79,0-12.32,5.53-12.32,12.33v5.29h-6.3v-5.93l-0.03-0.58
					c-0.56-5.74-5.09-10.35-10.81-11.03c-0.01-0.09-0.02-0.17-0.02-0.26c0-0.22,0.04-0.39,0.06-0.51c0.05-0.18,0.13-0.36,0.25-0.53
					L521,242.11c1.56-2.66,4.31-4.26,7.4-4.26c3.07,0,5.82,1.6,7.37,4.26l37.57,65.07c0.1,0.15,0.18,0.32,0.22,0.49
					C573.58,307.75,573.63,307.94,573.63,308.18z"/>
			</g>
			<path class="st14" d="M613.11,320.68l0,34.02c0,3.5-2.83,6.33-6.33,6.33h-137.6c-3.51,0-6.33-2.83-6.33-6.33l0-34.02
				c0-3.49,2.82-6.33,6.33-6.33h12.55c0.22,0,0.42,0.01,0.63,0.03c2.98,0.3,5.36,2.68,5.66,5.67v9.32c0,1.45,1.17,2.61,2.61,2.61
				h13.09c1.39,0,2.54-1.09,2.6-2.47c0.01-0.05,0.01-0.09,0.01-0.14c0-0.04,0-0.09-0.01-0.14v-8.55c0-3.49,2.83-6.33,6.33-6.33
				h31.51c3.5,0,6.33,2.84,6.33,6.33v8.55c-0.01,0.05-0.01,0.1-0.01,0.14c0,0.05,0,0.09,0.01,0.14c0.06,1.38,1.2,2.47,2.6,2.47
				h13.09c1.45,0,2.61-1.17,2.61-2.61v-9.32c0.28-2.8,2.37-5.06,5.1-5.59c0.19-0.03,0.37-0.05,0.56-0.08
				c0.16-0.01,0.33-0.03,0.49-0.03h31.85C610.28,314.36,613.11,317.2,613.11,320.68z"/>
			<path class="st15" d="M580.46,378.66v176.02H462.85V378.66c0-5.33,3.41-9.71,7.79-10.33c0.34-0.06,0.7-0.08,1.06-0.08h99.9
				c0.37,0,0.72,0.02,1.06,0.08C577.05,368.95,580.46,373.33,580.46,378.66z"/>
			<path class="st15" d="M437,295.63H299.66c-8.76,0-15.85,7.1-15.85,15.86v218.07c26.2,11.44,55.11,17.78,85.53,17.78
				c29.63,0,57.84-6.02,83.51-16.91V311.49C452.85,302.73,445.75,295.63,437,295.63z M320.68,362.5c-7.22,0-13.05-5.86-13.05-13.07
				c0-7.21,5.83-13.06,13.05-13.06c7.21,0,13.06,5.85,13.06,13.06C333.74,356.64,327.89,362.5,320.68,362.5z M387.52,397.54
				c-6.67,3.11-12.8,4.24-18.17,4.2c-5.38,0.05-11.51-1.09-18.19-4.2c-20.1-9.34-19.51-36.93-3.06-33.3
				c1.23,0.28,2.53,0.51,3.9,0.71c0,0,0,0,0.01,0c5.39,0.78,11.56,0.99,17.47,0.91h0.09c5.79,0.08,11.83-0.14,17.11-0.91
				c0.01,0,0.01,0,0.02,0c1.35-0.2,2.66-0.43,3.9-0.71C407.04,360.61,407.63,388.2,387.52,397.54z M416.61,362.5
				c-7.2,0-13.06-5.86-13.06-13.07c0-7.21,5.86-13.06,13.06-13.06c7.22,0,13.07,5.85,13.07,13.06
				C429.68,356.64,423.83,362.5,416.61,362.5z"/>
		</g>
	</g>
	<path class="st47" d="M625.99,442.59c1.57-0.5,2.94-0.45,4.12,0.17c1.73,0.95,2.66,2.27,2.77,3.95c0,1.18-0.11,2.04-0.34,2.6
		c-0.39,0.79-1.12,1.48-2.18,2.1c-3.53,2.02-9.13,3.58-16.8,4.7c-2.46,0.45-3.5,1.99-3.11,4.62c0,1.4,0.67,2.1,2.02,2.1h16.29
		c3.08,0.62,4.48,2.46,4.2,5.54c-0.39,2.41-1.79,3.89-4.2,4.45h-16.21c-1.4,0-2.1,0.67-2.1,2.02c-0.06,1.46,0,2.49,0.17,3.11
		c0.5,1.46,1.57,2.24,3.19,2.35h43.59c1.23-0.11,2.21-0.92,2.94-2.44c0.28-0.67,0.36-1.68,0.25-3.02c0-1.34-0.67-2.02-2.02-2.02
		h-14.7c-3.08-0.56-4.54-2.46-4.37-5.71c0.22-2.18,1.68-3.61,4.37-4.28h14.7c1.34,0,2.02-0.67,2.02-2.02v-2.69
		c-0.39-1.73-1.4-2.66-3.02-2.77H643.8c-0.56-0.05-1.12-0.2-1.68-0.42c-1.85-0.84-2.88-2.32-3.11-4.45c0.05-2.8,1.62-4.51,4.7-5.12
		h20.32c1.06,0.17,2.18,0.56,3.36,1.18c2.13,1.57,3.28,3.53,3.44,5.88v29.98c0,2.18-1.34,4.37-4.03,6.55
		c-1.29,0.84-2.55,1.29-3.78,1.34h-10.92c-1.4,0-2.1,0.67-2.1,2.02v15.96c0,1.34,0.11,2.29,0.34,2.86c0.56,0.89,1.29,1.43,2.18,1.6
		h8.48c3.97-0.45,5.68-2.44,5.12-5.96c-0.06-1.85,0.08-3.44,0.42-4.79c0.39-2.29,1.79-3.75,4.2-4.37c2.91-0.05,4.76,1.34,5.54,4.2
		c0.22,0.62,0.28,1.65,0.17,3.11l-0.34,9.24c-0.22,2.74-1.46,5.09-3.7,7.05c-0.79,0.67-1.63,1.06-2.52,1.18
		c-2.86,0.56-6.66,0.84-11.42,0.84h-5.63l-5.21-0.17c-1.34-0.22-2.46-0.53-3.36-0.92c-2.8-1.51-4.31-3.53-4.54-6.05v-23.77
		c0-1.34-0.67-2.02-2.02-2.02h-7.81c-1.4,0-2.1,0.67-2.1,2.02c0.5,6.61-1.29,12.65-5.38,18.14c-3.47,4.25-7.84,7.7-13.1,10.33
		c-3.42,1.96-6.61,3.02-9.57,3.19c-2.86,0-4.54-1.6-5.04-4.79c-0.39-2.24,0.73-3.98,3.36-5.21c4.65-1.12,9.13-3.33,13.44-6.63
		c3.7-3.19,5.71-6.75,6.05-10.67v-4.37c0-1.34-0.67-2.02-2.02-2.02h-7.56c-4.2-0.28-6.83-2.91-7.89-7.89v-28.13
		c0.17-2.8,1.51-4.79,4.03-5.96c2.02-0.84,4.25-1.4,6.72-1.68C616.03,445.62,621.07,444.27,625.99,442.59z"/>
	<path class="st47" d="M705.18,475.6c0.39-2.41,2.02-4,4.87-4.79h56.94c2.74,0.39,4.37,2.02,4.87,4.87v19.48
		c-0.56,2.97-2.35,4.76-5.38,5.38h-20.74c-1.4,0-2.1,0.39-2.1,1.18c0,0.9,0.67,1.34,2.02,1.34h24.27c1.18,0.06,2.18,0.79,3.02,2.18
		c0.67,1.74,0.39,3.39-0.84,4.96c-0.62,0.62-1.32,0.98-2.1,1.09h-24.27c-1.4,0-2.1,0.39-2.1,1.18c0,0.84,0.67,1.26,2.02,1.26h30.99
		c0.67,0.11,1.23,0.31,1.68,0.59c1.12,0.84,1.71,1.88,1.76,3.11c-0.06,2.52-1.23,4.06-3.53,4.62h-76.01
		c-2.63-0.39-3.86-1.99-3.7-4.79c0.05-1.74,1.23-2.91,3.53-3.53h31.33c1.34,0,2.02-0.39,2.02-1.18c0-0.84-0.67-1.26-2.02-1.26
		h-24.69c-1.96-0.34-3.16-1.23-3.61-2.69c-0.34-1.34-0.2-2.57,0.42-3.7c0.84-1.23,1.85-1.85,3.02-1.85h24.86
		c1.34,0,2.02-0.42,2.02-1.26s-0.67-1.26-2.02-1.26h-22c-2.86-0.73-4.37-2.52-4.54-5.38V475.6z M736.42,442.01
		c1.73-0.56,3.25-0.5,4.54,0.17c1.68,0.95,2.57,2.18,2.69,3.7c0.05,1.12,0.76,1.68,2.1,1.68h27.21c1.46,0.28,2.46,0.98,3.02,2.1
		c0.89,2.18,0.34,4.09-1.68,5.71c-0.45,0.22-0.92,0.39-1.43,0.5h-9.74c-1.34,0-2.44,0.76-3.28,2.27c-0.67,1.51-0.34,2.27,1.01,2.27
		h15.12c0.5,0,1.06,0.2,1.68,0.59c1.34,0.9,1.9,2.27,1.68,4.12c-0.17,1.79-1.32,2.97-3.44,3.53h-75.08
		c-2.07-0.34-3.28-1.57-3.61-3.7c-0.11-2.46,1.06-3.97,3.53-4.54h16.38c1.4,0,1.68-0.78,0.84-2.35c-0.9-1.46-2.02-2.18-3.36-2.18
		h-10.33c-1.68-0.11-2.86-1.04-3.53-2.77c-0.34-1.34-0.2-2.57,0.42-3.7c0.78-1.06,1.79-1.68,3.02-1.85h27.55
		c1.34,0,2.04-0.67,2.1-2.02C733.98,444.08,734.85,442.9,736.42,442.01z M733.73,491.14c-0.06-0.89-0.73-1.34-2.02-1.34h-14.45
		c-1.34,0-2.04,0.06-2.1,0.17c-0.17,1.01,0.34,1.79,1.51,2.35h15.03C733.06,492.31,733.73,491.92,733.73,491.14z M718.61,479.04
		c-1.29-0.17-2.24-0.03-2.86,0.42c-0.45,0.39-0.64,0.87-0.59,1.43c0.05,0.45,0.76,0.67,2.1,0.67h14.45c1.34,0,2.02-0.42,2.02-1.26
		c-0.06-0.84-0.76-1.26-2.1-1.26H718.61z M748.93,458.13c0.67-1.51,0.36-2.27-0.92-2.27h-17.89c-1.4,0-1.68,0.76-0.84,2.27
		c0.89,1.51,2.02,2.27,3.36,2.27h13.1C747.08,460.4,748.15,459.64,748.93,458.13z M761.86,480.72c-0.28-1.46-1.48-2.02-3.61-1.68
		h-12.51c-1.4,0-2.1,0.39-2.1,1.18c0,0.9,0.67,1.34,2.02,1.34h14.19C761.19,481.56,761.86,481.28,761.86,480.72z M761.95,490.3
		c0-0.34-0.67-0.5-2.02-0.5h-14.19c-1.4,0-2.1,0.39-2.1,1.18c0,0.9,0.67,1.34,2.02,1.34h12.51c1.34,0,2.29-0.11,2.86-0.34
		C761.58,491.7,761.89,491.14,761.95,490.3z"/>
	<path class="st47" d="M828.11,443.43c1.23-0.22,2.13-0.11,2.69,0.34c1.62,1.23,2.38,2.83,2.27,4.79c-0.06,1.4-0.64,2.46-1.76,3.19
		c-1.63,0.84-3.39,1.51-5.29,2.02c-1.34,0.34-2.02,1.18-2.02,2.52v7.39c0,1.4,0.67,2.1,2.02,2.1h3.02c1.68,0,2.94,0.11,3.78,0.34
		c0.84,0.45,1.29,0,1.34-1.34v-0.5v-13.52c0.56-3.13,2.35-5.07,5.38-5.79h35.95c2.86,0.73,4.62,2.63,5.29,5.71v15.96
		c-0.67,3.3-2.63,5.32-5.88,6.05h-34.69c-0.95-0.17-1.82-0.5-2.6-1.01c-1.34-0.95-2.04-1.01-2.1-0.17
		c-0.28,1.85-1.43,3.11-3.44,3.78c-1.46,0.06-2.94,0.08-4.45,0.08c-1.4,0-1.43,0.67-0.08,2.02c1.01,1.06,2.04,2.16,3.11,3.28
		c1.23,1.4,1.85,1.43,1.85,0.08c0.34-1.12,0.78-1.99,1.34-2.6c1.18-1.01,2.74-1.4,4.7-1.18l1.43,0.08h7.89
		c10.3-0.39,19.46-1.57,27.46-3.53c2.41-0.78,4.28-0.25,5.63,1.6c1.01,1.57,1.2,3.25,0.59,5.04c-0.56,1.18-1.54,2.02-2.94,2.52
		c-3.36,1.34-8.2,2.44-14.53,3.28c-1.34,0.17-2.02,0.92-2.02,2.27v4.62c0,1.4,0.67,2.1,2.02,2.1h15.45
		c2.13,0.34,3.47,1.51,4.03,3.53c0.62,3.19-0.76,5.24-4.12,6.13h-15.29c-1.4,0-2.1,0.67-2.1,2.02v4.79c0,1.4,0.67,2.1,2.02,2.1
		h14.61c2.91,0.62,4.23,2.38,3.95,5.29c-0.17,2.24-1.51,3.67-4.03,4.28h-44.26c-1.4-0.28-2.46-1.01-3.19-2.18
		c-0.9-1.4-0.98-3.02-0.25-4.87c0.84-1.51,2.04-2.35,3.61-2.52h15.62c1.34,0,2.02-0.67,2.02-2.02v-4.87c0-1.34-0.67-2.02-2.02-2.02
		h-17.47c-1.79-0.17-3.08-1.43-3.86-3.78c-0.22-1.06-0.08-2.18,0.42-3.36c0.78-1.46,2.04-2.29,3.78-2.52h17.13
		c1.34,0,2.02-0.67,2.02-2.02v-3.86c0-1.34-0.67-2.04-2.02-2.1c-0.73,0-1.46,0.06-2.18,0.17h-8.31l-2.02-0.17
		c-1.23-0.22-1.74,0.14-1.51,1.09c0.11,0.9,0.11,1.63,0,2.18c-0.9,2.07-2.35,3.14-4.37,3.19c-0.95,0.17-1.88-0.14-2.77-0.92
		c-0.73-0.67-1.79-1.96-3.19-3.86c-1.18-1.4-1.76-1.4-1.76,0v31.83c-0.56,3.13-2.18,4.7-4.87,4.7c-2.8-0.17-4.4-1.68-4.79-4.54
		V497.1c0-1.34-0.03-2.07-0.08-2.18c-0.06-0.17-0.5,0.39-1.34,1.68c-0.9,1.63-1.93,3.3-3.11,5.04c-0.39,0.79-1.15,1.37-2.27,1.76
		c-0.84,0.39-1.85,0.45-3.02,0.17c-2.97-1.23-4.06-3.19-3.28-5.88c0.22-0.89,0.87-2.02,1.93-3.36c4.14-5.88,7.22-11.53,9.24-16.96
		c0.5-1.34,0.08-2.02-1.26-2.02h-5.71c-1.9-0.28-3.16-1.54-3.78-3.78c-0.5-3.13,0.87-5.07,4.12-5.79h6.55
		c1.34,0,2.02-0.67,2.02-2.02v-5.21c0-1.34-0.67-1.9-2.02-1.68c-1.4,0.17-2.8,0.37-4.2,0.59c-2.52,0.39-4.23-0.84-5.12-3.7
		c-0.45-3.47,1.2-5.51,4.96-6.13c4.48-0.95,8.96-1.82,13.44-2.6C824.14,444.19,826.38,443.66,828.11,443.43z M845.33,454.69
		c-0.95,0.34-1.46,0.87-1.51,1.6v4.7c0.05,0.95,0.73,1.63,2.02,2.02H867c1.34,0,2.15-0.05,2.44-0.17c0.5-0.11,1.01-0.59,1.51-1.43
		c0.11-0.28,0.17-1.18,0.17-2.69s-0.11-2.55-0.34-3.11c-0.95-1.06-2.18-1.43-3.7-1.09h-19.15
		C846.59,454.52,845.72,454.58,845.33,454.69z"/>
	<path class="st47" d="M906.87,479.97c0.11-2.8,1.6-4.48,4.45-5.04h33.93c1.9,0.11,3.25,1.29,4.03,3.53
		c0.62,3.3-0.76,5.46-4.12,6.47h-9.07c-1.4,0-2.1,0.67-2.1,2.02v17.22c0,1.34,0.67,1.88,2.02,1.6c5.21-1.46,9.57-2.91,13.1-4.37
		c2.07-0.56,3.89-0.08,5.46,1.43c1.57,1.85,1.88,4.09,0.92,6.72c-0.11,0.39-0.59,0.89-1.43,1.51c-3.3,1.62-7.78,3.28-13.44,4.96
		c-8.96,2.46-17.92,4.56-26.88,6.3c-1.46,0.28-3.08,0.36-4.87,0.25c-1.57,0.11-2.8-0.76-3.7-2.6c-0.45-1.29-0.62-2.41-0.5-3.36
		c0.39-2.07,1.54-3.5,3.44-4.28l13.19-2.86c1.4-0.28,2.1-1.09,2.1-2.44v-20.07c0-1.34-0.67-2.02-2.02-2.02h-9.91
		C908.58,484.53,907.04,482.88,906.87,479.97z M962.72,442.09c2.18-1.01,4.81-0.36,7.89,1.93c2.41,1.46,4.65,3.11,6.72,4.96
		c1.73,1.63,2.1,3.36,1.09,5.21c-0.73,1.06-0.42,1.6,0.92,1.6c1.4-0.17,2.66,0,3.78,0.5c1.46,0.79,2.29,1.96,2.52,3.53
		c0.11,1.23,0.03,2.13-0.25,2.69c-0.79,1.85-2.1,2.94-3.95,3.28h-19.99c-1.34,0-1.99,0.67-1.93,2.02
		c0.73,9.74,2.49,18.59,5.29,26.54c1.51,4.59,3.81,9.07,6.89,13.44c0.39,0.56,0.84,1.12,1.34,1.68c0.84,1.18,1.62,1.2,2.35,0.08
		c0.22-0.89,0.36-2.02,0.42-3.36c0.11-2.24,0.25-4.48,0.42-6.72c0.84-3.02,2.63-4.54,5.38-4.54c1.06,0.06,2.13,0.5,3.19,1.34
		c0.73,0.73,1.18,1.32,1.34,1.76c0.73,2.91,0.45,7.73-0.84,14.45c-0.56,3.02-1.15,5.26-1.76,6.72c-0.5,1.4-1.29,2.49-2.35,3.28
		c-4.65,2.13-8.9,1.26-12.77-2.6c-3.64-3.36-6.78-7.87-9.41-13.52c-4.26-9.13-7.11-18.08-8.57-26.88
		c-0.67-3.97-1.18-7.81-1.51-11.51c-0.11-1.46-0.79-2.18-2.02-2.18h-37.63c-1.96-0.17-3.39-1.34-4.28-3.53
		c-0.67-2.07,0-3.97,2.02-5.71c0.73-0.45,1.46-0.7,2.18-0.76h36.79c1.34,0,2.02-0.67,2.02-2.02c-0.11-2.07-0.17-4.14-0.17-6.21
		c0.05-1.9,1.01-3.47,2.86-4.7c1.34-0.78,2.99-0.87,4.96-0.25c1.73,1.34,2.66,2.94,2.77,4.79l0.17,6.3c0,1.4,0.67,2.1,2.02,2.1h7.98
		c1.4,0,1.4-0.53,0-1.6c-2.35-1.34-4.48-2.66-6.38-3.95c-1.51-1.23-2.18-2.32-2.02-3.28C960.03,445,960.87,443.38,962.72,442.09z"/>
	<path class="st47" d="M1059.54,442.85c1.46-1.29,3.16-1.54,5.12-0.76c1.46,0.62,2.32,1.54,2.6,2.77c0.39,1.23,0.39,2.72,0,4.45
		c-0.06,1.34,0.59,2.02,1.93,2.02h16.71c3.36,0.73,4.67,2.86,3.95,6.38c-1.01,2.24-2.46,3.3-4.37,3.19c-1.18,0-1.76,0.67-1.76,2.02
		c0.05,5.21-0.42,10.41-1.43,15.62c-1.29,5.66-3.33,11.87-6.13,18.64c-0.62,1.34-0.5,2.69,0.34,4.03c3.19,4.65,7.39,9.41,12.6,14.28
		c1.79,1.96,1.79,4.2,0,6.72c-2.02,2.07-4.26,2.32-6.72,0.76c-4.03-3.02-7.76-7.28-11.17-12.77c-0.95-1.34-1.96-1.34-3.02,0
		c-6.66,8.06-13.13,12.79-19.4,14.19c-2.58-0.06-4.17-1.54-4.79-4.45c-0.06-0.95,0.03-1.74,0.25-2.35c0.11-0.5,0.64-1.21,1.6-2.1
		c5.38-2.91,10.95-7.81,16.71-14.7c1.18-1.34,1.46-2.69,0.84-4.03c-1.74-4.31-3.02-8.43-3.86-12.35c-0.28-1.34-0.79-1.37-1.51-0.08
		l-1.51,2.6c-1.51,2.3-3.02,3.19-4.54,2.69c-1.46-0.39-2.8-0.17-4.03,0.67l-9.24,4.79c-1.34,0.73-2.04,1.34-2.1,1.85
		c0.22,0.67,0.98,0.87,2.27,0.59c4.37-1.01,7.67-1.9,9.91-2.69c1.34-0.5,2.57-0.73,3.7-0.67c1.18,0.17,2.24,0.9,3.19,2.18
		c0.78,1.23,1.01,2.63,0.67,4.2c-0.17,0.56-0.45,1.12-0.84,1.68c-0.73,0.67-1.85,1.23-3.36,1.68c-2.13,0.73-5.1,1.57-8.9,2.52
		c-1.34,0.34-1.93,1.18-1.76,2.52c0.28,4.14-0.67,7.75-2.86,10.83c-2.97,3.64-6.52,5.29-10.67,4.96c-3.64-0.45-7-1.32-10.08-2.6
		c-2.74-1.12-3.86-3.08-3.36-5.88c0.73-2.97,2.49-4.28,5.29-3.95c1.06,0.05,2.18,0.42,3.36,1.09c2.57,1.23,4.81,1.51,6.72,0.84
		c1.18-0.73,1.85-1.9,2.02-3.53c0.05-1.34-0.59-1.88-1.93-1.6c-5.71,1.01-11.2,1.82-16.46,2.44c-2.8,0.22-4.48-1.18-5.04-4.2
		c-0.17-2.74,1.18-4.54,4.03-5.38c4.37-0.56,8.2-1.15,11.51-1.76c1.46-0.22,1.88-0.7,1.26-1.43c-2.07-2.91-1.32-5.29,2.27-7.14
		l6.8-2.27c1.34-0.56,1.96-0.92,1.85-1.09c-0.17-0.05-0.39-0.11-0.67-0.17h-7.05c-1.34,0-2.3,0.2-2.86,0.59
		c-2.24,1.63-4.48,3.19-6.72,4.7c-2.07,1.4-4.31,2.52-6.72,3.36c-2.52,0.73-4.37-0.56-5.54-3.86c-0.5-1.68,0.08-3.28,1.76-4.79
		c7.22-4.03,12.99-7.84,17.3-11.42c1.4-1.23,1.43-1.85,0.08-1.85h-14.95c-2.69-0.56-3.98-2.29-3.86-5.21
		c0.17-2.07,1.51-3.41,4.03-4.03h11.34c1.34,0,2.02-0.92,2.02-2.77s-0.67-2.77-2.02-2.77h-8.31c-2.91-0.56-4.23-2.29-3.95-5.21
		c0.11-2.13,1.43-3.5,3.95-4.12h8.31c1.34,0,2.02-0.67,2.02-2.02v-2.86c0.62-2.91,2.35-4.28,5.21-4.12c2.41,0.28,3.89,1.68,4.45,4.2
		v2.69c0,1.4,0.67,2.1,2.02,2.1h4.87c1.68,0,2.97,0.11,3.86,0.34c0.95,0.5,1.82,0.14,2.6-1.09c1.68-2.91,3.64-3.92,5.88-3.02
		c1.4,0.56,2.44,1.4,3.11,2.52c0.78,1.57,0.62,3.25-0.5,5.04c-1.85,3.08-3.78,6.08-5.79,8.99c-1.01,1.4-0.84,2.1,0.5,2.1
		c1.46,0.06,2.63,0.76,3.53,2.1c0.11,0.39,0.39-0.08,0.84-1.43c1.9-6.44,2.88-13.13,2.94-20.07
		C1057.97,445.03,1058.53,443.91,1059.54,442.85z M1039.55,462.16c0.95-1.4,0.78-2.1-0.5-2.1h-2.94c-1.4,0-2.1,0.9-2.1,2.69
		c0,1.9,0.45,2.86,1.34,2.86c0.95,0,1.96-0.67,3.02-2.02L1039.55,462.16z M1049.46,474.84h-6.47c-1.34,0-2.66,0.62-3.95,1.85
		l-1.01,1.09c-1.29,1.4-1.23,2.1,0.17,2.1h5.96c1.34,0.06,2.32,0.2,2.94,0.42c1.29,0.5,2.24,0.06,2.86-1.34
		c0.34-0.78,0.7-1.57,1.09-2.35C1051.67,475.26,1051.14,474.68,1049.46,474.84z M1074.07,463c0-1.4-0.64-2.1-1.93-2.1h-3.36
		c-1.4,0-2.1,0.67-2.1,2.02v4.96c0.17,6.1,1.04,11.98,2.6,17.64c0.45,1.46,0.89,1.51,1.34,0.17
		C1073.09,478.74,1074.24,471.18,1074.07,463z"/>
	<path class="st47" d="M1147.79,443.6c1.96-1.79,4.03-2.13,6.21-1.01c1.62,0.84,2.49,2.13,2.6,3.86c0.05,1.23,0.7,1.85,1.93,1.85
		h29.14c2.86,0.62,4.17,2.38,3.95,5.29c-0.22,2.24-1.6,3.67-4.12,4.28h-9.32c-1.34,0-1.32,0.59,0.08,1.76
		c4.14,3.42,7.92,7.08,11.34,11c1.12,1.34,1.85,2.46,2.18,3.36c0.62,1.23,0.28,2.69-1.01,4.37c-1.18,1.29-2.86,1.76-5.04,1.43
		c-0.5-0.17-1.06-0.5-1.68-1.01l-5.12-5.21c-1.34-1.29-2.69-1.9-4.03-1.85l-57.7,2.44c-1.01,0.17-2.13,0.08-3.36-0.25
		c-1.63-0.67-2.52-1.9-2.69-3.7c-0.28-3.75,1.6-5.63,5.63-5.63h4.54c1.34,0,2.29-0.22,2.86-0.67c1.96-1.4,3.83-2.86,5.63-4.37
		c1.34-1.12,1.34-1.68,0-1.68h-14.45c-2.02-0.22-3.36-1.4-4.03-3.53c-0.22-1.34-0.2-2.32,0.08-2.94c0.78-1.9,2.07-2.94,3.86-3.11
		h29.39c1.34,0,2.02-0.67,2.02-2.02C1146.81,445.34,1147.17,444.44,1147.79,443.6z M1119.91,477.7c1.29-1.85,3.05-2.91,5.29-3.19
		h51.23c2.74,0.34,4.84,1.79,6.3,4.37c0.39,0.73,0.64,1.63,0.76,2.69V516c-0.06,2.69-1.18,4.84-3.36,6.47
		c-2.46,1.4-5.43,2.13-8.9,2.18h-4.62l-3.61-0.25c-2.97-0.34-4.7-1.96-5.21-4.87c-0.11-0.62,0.05-1.51,0.5-2.69
		c0.84-1.51,1.79-2.44,2.86-2.77c0.89-0.28,2.02-0.37,3.36-0.25c2.35,0.67,4.59,0.81,6.72,0.42c1.34-0.5,2.07-1.57,2.18-3.19
		c0-0.73-0.67-1.09-2.02-1.09h-40.9c-1.4,0-2.1,0.67-2.1,2.02v7.98c-0.28,2.07-1.37,3.55-3.28,4.45c-2.13,0.62-3.95,0.17-5.46-1.34
		c-0.67-0.95-1.06-1.96-1.18-3.02v-38.97C1118.65,479.88,1119.12,478.76,1119.91,477.7z M1131.08,484.08
		c-1.51,0.17-2.41,1.15-2.69,2.94c0.05,0.17,0.76,0.25,2.1,0.25h40.9c1.34,0,2.02-0.14,2.02-0.42c-0.06-1.12-0.7-1.99-1.93-2.6
		c-0.34-0.11-1.18-0.17-2.52-0.17H1131.08z M1173.49,498.7c0-1.18-0.64-1.76-1.93-1.76h-41.07c-1.4,0-2.1,0.53-2.1,1.6
		c0,1.18,0.67,1.76,2.02,1.76h41.07C1172.82,500.29,1173.49,499.76,1173.49,498.7z M1163.91,459.98c-1.01-1.4-2.16-2.1-3.44-2.1
		h-12.68c-1.34,0-2.69,0.64-4.03,1.93c-0.9,0.9-1.82,1.74-2.77,2.52c-1.29,1.23-1.21,1.82,0.25,1.76l24.52-0.67
		c1.34,0,1.37-0.56,0.08-1.68C1165.17,461.18,1164.53,460.6,1163.91,459.98z"/>
	<g>
		<path class="st47" d="M692.21,402.36v-96.81c-3.09,11.54-7.72,23.41-13.9,35.6c-5.69,11.54-10.49,17.31-14.39,17.31
			c-5.85,0-8.78-3.41-8.78-10.24c0-2.6,1.62-6.18,4.88-10.73c14.14-20,24.22-42.1,30.24-66.33h-22.19c-7.64,0-11.46-3.09-11.46-9.27
			c0-6.18,3.82-9.27,11.46-9.27h24.14v-33.41c-13.82,1.95-22.76,2.93-26.82,2.93c-5.85,0-8.78-3.41-8.78-10.24
			c0-3.25,1.3-5.45,3.9-6.58c2.76-1.14,8.61-2.19,17.56-3.17c17.07-1.62,32.59-4.31,46.58-8.05l4.88-0.73
			c3.57-0.49,6.3,0.21,8.17,2.07c1.87,1.87,2.8,4.59,2.8,8.17c0,2.6-1.46,4.88-4.39,6.83c-3.09,2.11-11.46,4.23-25.12,6.34v35.85
			h17.56c7.64,0,11.46,3.09,11.46,9.27c0,6.18-3.82,9.27-11.46,9.27h-17.56v31.46c1.46-2.44,3.66-3.66,6.58-3.66
			c1.46,0,3.57,1.22,6.34,3.66c2.76,2.44,5.93,6.02,9.51,10.73c7.15,9.59,10.73,15.69,10.73,18.29c0,5.69-2.77,8.53-8.29,8.53
			c-2.77,0-5.77-2.6-9.02-7.8c-3.41-5.52-7.89-11.71-13.41-18.53l-2.44-4.15v92.66c0,7.32-3.17,10.97-9.51,10.97
			C695.29,413.34,692.21,409.68,692.21,402.36z M728.05,394.07c0-5.85,3.17-8.78,9.51-8.78h57.06v-28.77h-39.02
			c-6.34,0-9.51-2.84-9.51-8.53c0-5.69,3.17-8.54,9.51-8.54h39.02v-25.12l-39.26,2.68c-3.74,0.16-6.58-0.57-8.53-2.19
			c-1.95-1.62-2.93-4.06-2.93-7.32c0-3.09,1.06-5.37,3.17-6.83c2.11-1.62,8.61-2.52,19.51-2.68c31.54-0.98,58.52-3.49,80.96-7.56
			l3.17-0.49c3.25-0.49,5.81,0.21,7.68,2.07c1.87,1.87,2.8,4.51,2.8,7.92c0,3.9-3.58,6.75-10.73,8.53
			c-2.6,0.65-14.71,2.12-36.33,4.39v26.58h40.72c6.18,0,9.27,2.85,9.27,8.54c0,5.69-3.09,8.53-9.27,8.53h-40.72v28.77h54.13
			c6.5,0,9.75,3.01,9.75,9.02c0,5.85-3.25,8.78-9.75,8.78h-130.7C731.22,403.09,728.05,400.08,728.05,394.07z M750,275.56
			c-3.41-3.25-4.88-8.54-4.39-15.85v-35.85c0-7.48,1.67-12.92,5-16.34c3.33-3.41,8.57-4.88,15.73-4.39h76.57
			c7.48,0,12.92,1.67,16.34,5c3.41,3.33,4.88,8.58,4.39,15.73v35.85c0,7.64-1.63,13.13-4.88,16.46c-3.25,3.33-8.53,4.75-15.85,4.27
			h-76.57C758.86,280.44,753.41,278.81,750,275.56z M844.86,254.83v-26.09c0-5.04-2.68-7.72-8.05-8.05h-64.86
			c-5.04,0-7.72,2.68-8.05,8.05v26.09c0,5.04,2.68,7.72,8.05,8.05h64.86C842.01,262.88,844.69,260.2,844.86,254.83z"/>
		<path class="st47" d="M904.84,273.12c0-1.46,0.53-3.09,1.58-4.88c1.06-1.79,2.8-3.98,5.24-6.58
			c17.39-18.37,31.29-39.42,41.7-63.16c1.95-4.71,4.96-7.07,9.02-7.07c7.15,0,10.73,2.93,10.73,8.78c0,3.41-6.26,15.04-18.78,34.87
			v91.2c0,6.99-3.17,10.49-9.51,10.49c-6.18,0-9.27-3.49-9.27-10.49v-65.35c-11.06,14.63-18.53,21.95-22.43,21.95
			C907.6,282.88,904.84,279.63,904.84,273.12z M1127.72,395.78c0,6.01-3.74,9.02-11.22,9.02H915.57c-7.16,0-10.73-3.01-10.73-9.02
			c0-5.85,3.57-8.78,10.73-8.78h89.98v-23.17h-69.98c-6.5,0-9.75-2.84-9.75-8.53c0-5.69,3.25-8.54,9.75-8.54h69.98v-12.68
			c0-6.34,3.41-9.51,10.24-9.51c6.5,0,9.75,3.17,9.75,9.51v12.68h71.45c3.57,0,6.18,0.69,7.8,2.07c1.62,1.38,2.44,3.54,2.44,6.46
			c0,5.69-3.41,8.53-10.24,8.53h-71.45V387h90.96C1123.98,387,1127.72,389.92,1127.72,395.78z M1036.28,268v-12.68h-30.73
			c-6.99,0-12.31-1.71-15.97-5.12s-5.49-8.45-5.49-15.12v-16.34c0-6.83,1.87-11.99,5.61-15.48c3.74-3.49,9.02-5.08,15.85-4.75H1087
			c14.47,0,21.7,6.75,21.7,20.24v16.34c0,6.99-1.83,12.19-5.49,15.61s-9.06,4.96-16.22,4.63h-31.94V268h61.94
			c6.5,0,9.75,2.85,9.75,8.54c0,5.53-3.25,8.29-9.75,8.29h-51.94c16.9,13.5,33.57,22.19,49.99,26.09
			c8.62,2.12,12.92,5.69,12.92,10.73c0,6.67-3.01,10-9.02,10c-6.67,0-17.07-4.15-31.21-12.44c-12.52-7.32-23.41-15.69-32.68-25.12
			v34.14c0,2.93-0.85,5.16-2.56,6.71c-1.71,1.55-4.02,2.32-6.95,2.32c-6.18,0-9.27-3.01-9.27-9.02v-33.41
			c-11.06,9.75-22.68,18.13-34.87,25.12c-13.5,7.64-22.92,11.46-28.29,11.46c-5.69,0-8.54-3.09-8.54-9.27c0-2.44,1.1-4.47,3.29-6.1
			c2.19-1.62,5.57-3.33,10.12-5.12c19.34-7.15,35.6-15.85,48.77-26.09h-52.18c-6.5,0-9.75-2.76-9.75-8.29
			c0-5.69,3.25-8.54,9.75-8.54H1036.28z M1005.55,237.15c1.3,1.22,3.41,1.91,6.34,2.07h68.52c2.93,0,4.96-0.61,6.1-1.83
			c1.13-1.22,1.79-3.37,1.95-6.46v-8.29c0-2.93-0.61-5-1.83-6.22c-1.22-1.22-3.29-1.83-6.22-1.83h-68.52c-2.93,0-5,0.61-6.22,1.83
			c-1.22,1.22-1.91,3.29-2.07,6.22v8.29C1003.6,233.86,1004.25,235.93,1005.55,237.15z"/>
	</g>
	<path class="st12" d="M860.83,291.68c-1.93-1.92-4.57-2.64-7.92-2.14l-3.27,0.5c-23.13,4.19-50.96,6.79-83.48,7.8
		c-11.23,0.17-17.94,1.09-20.12,2.77c-2.18,1.51-3.27,3.86-3.27,7.04c0,3.36,1.01,5.87,3.02,7.54c2.01,1.68,4.94,2.43,8.8,2.26
		l40.48-2.77l20.12-1.51c22.29-2.35,34.78-3.85,37.46-4.53c7.37-1.84,11.06-4.78,11.06-8.8
		C863.72,296.33,862.76,293.6,860.83,291.68z"/>
	<path class="st6" d="M738.8,195.04c-1.94-1.93-4.75-2.65-8.45-2.14l-5.04,0.76c-14.46,3.87-30.51,6.64-48.16,8.32
		c-9.25,1.01-15.3,2.1-18.16,3.28c-2.69,1.18-4.03,3.45-4.03,6.81c0,7.06,3.03,10.59,9.08,10.59c4.2,0,13.45-1.01,27.74-3.03v0.13
		c0.96-0.21,1.95-0.32,2.91-0.4c0.19-0.02,0.38-0.01,0.56-0.01c5.28-1.06,10.87-1.99,16.18-2.28c13.98-2.17,22.56-4.34,25.74-6.52
		c3.03-2.02,4.54-4.37,4.54-7.06C741.7,199.79,740.73,196.98,738.8,195.04z"/>
	<path class="st10" d="M1025.5,363.88l71.89,0c6.87,0,10.31-2.86,10.31-8.59c0-2.94-0.82-5.11-2.45-6.5
		c-1.64-1.39-4.26-2.09-7.85-2.09l-71.89,0l-20.12,0l-70.42,0c-6.54,0-9.81,2.86-9.81,8.59c0,5.73,3.27,8.59,9.81,8.59l70.42,0
		H1025.5z"/>
	<path class="st9" d="M955.28,234.67c13.04-20.67,19.57-32.79,19.57-36.36c0-6.12-3.74-9.18-11.22-9.18c-4.25,0-7.39,2.47-9.44,7.39
		c-10.88,24.82-25.42,46.83-43.6,66.04c-2.55,2.72-4.38,5.02-5.48,6.88c-1.11,1.87-1.66,3.57-1.66,5.1c0,6.8,2.89,10.2,8.67,10.2
		c4.08,0,11.9-7.65,23.46-22.95C935.57,261.81,954.55,235.3,955.28,234.67z"/>
	<circle class="st47" cx="788.53" cy="203.92" r="10.68"/>
	<circle class="st47" cx="756.28" cy="203.92" r="10.68"/>
	<rect x="745.68" y="202.14" class="st47" width="21.2" height="19.18"/>
	<circle class="st47" cx="853.04" cy="203.92" r="10.68"/>
	<circle class="st47" cx="820.79" cy="203.92" r="10.68"/>
	<rect x="842.44" y="202.14" class="st47" width="21.2" height="19.18"/>
	<circle class="st47" cx="994.64" cy="198.46" r="10.68"/>
	<rect x="984.04" y="199.82" class="st47" width="17.05" height="19.18"/>
	<circle class="st47" cx="1098.01" cy="198.46" r="10.68"/>
	<circle class="st47" cx="1063.55" cy="198.46" r="10.68"/>
	<circle class="st47" cx="1029.1" cy="198.46" r="10.68"/>
	<rect x="1090.73" y="199.82" class="st47" width="17.88" height="19.18"/>
</g>
</svg>
